<svg width="15" height="15" viewBox="0 0 15 15" fill="none" xmlns="http://www.w3.org/2000/svg">
<path d="M14.2132 7.1067C14.2132 10.5326 11.789 13.3926 8.5623 14.064C8.45165 14.0873 8.34019 14.1076 8.22768 14.1255H8.22742C8.02911 14.157 7.82865 14.18 7.62526 14.1947C7.56297 14.1993 7.50071 14.203 7.43817 14.2057C7.35933 14.2094 7.27995 14.2118 7.20029 14.2129C7.16902 14.2132 7.13803 14.2134 7.10676 14.2134C7.07549 14.2134 7.0445 14.2132 7.01323 14.2129C6.93357 14.2118 6.85419 14.2094 6.77509 14.2057C6.71255 14.203 6.65001 14.1993 6.588 14.1945C6.38461 14.18 6.18416 14.157 5.98584 14.1255H5.98559C5.87308 14.1076 5.76161 14.0873 5.65096 14.064C2.42422 13.3924 6.10352e-05 10.5326 6.10352e-05 7.10672C6.10352e-05 3.61804 2.51375 0.716535 5.82898 0.114653C5.92172 0.0978186 6.01525 0.0825905 6.10934 0.0694813C6.2673 0.0472911 6.42685 0.0302001 6.58803 0.018977C6.65003 0.0141571 6.71257 0.0104317 6.77512 0.00775393C6.85424 0.00400512 6.93362 0.00160687 7.01325 0.000535783C7.04452 0.000279653 7.07551 0 7.10678 0C7.13805 0 7.16904 0.000256369 7.20032 0.000535783C7.27997 0.00160687 7.35935 0.00400512 7.43819 0.00775393C7.50073 0.0104317 7.563 0.0141567 7.62528 0.0187204C7.78646 0.030223 7.94601 0.0473138 8.10397 0.069504C8.19804 0.0825899 8.29159 0.0975619 8.38434 0.114676C11.6996 0.716302 14.2132 3.61807 14.2132 7.10675L14.2132 7.1067Z" fill="#DCDCDC"/>
<path d="M7.20379 0.000535783V14.2129C7.17252 14.2132 7.14153 14.2135 7.11026 14.2135C7.07899 14.2135 7.04799 14.2132 7.01672 14.2129V0.000535783C7.04799 0.000279653 7.07899 0 7.11026 0C7.14153 0 7.17252 0.000256369 7.20379 0.000535783Z" fill="#492A2F"/>
<path d="M6.77459 0.0151367V0.236177C6.77459 0.287752 6.73264 0.329711 6.68106 0.329711C6.62949 0.329711 6.58752 0.287752 6.58752 0.236177V0.0263597C6.64953 0.0215398 6.71205 0.0178144 6.77459 0.0151367Z" fill="#685417"/>
<path d="M6.68106 13.2541C6.62949 13.2541 6.58752 13.2961 6.58752 13.3477V13.6676C6.58752 13.7195 6.62949 13.7611 6.68106 13.7611C6.73264 13.7611 6.77459 13.7194 6.77459 13.6676V13.3477C6.77459 13.2961 6.73264 13.2541 6.68106 13.2541ZM6.68106 12.6146C6.62949 12.6146 6.58752 12.6563 6.58752 12.7081V13.028C6.58752 13.0796 6.62949 13.1216 6.68106 13.1216C6.73264 13.1216 6.77459 13.0796 6.77459 13.028V12.7081C6.77459 12.6562 6.73264 12.6146 6.68106 12.6146ZM6.68106 11.9747C6.62949 11.9747 6.58752 12.0164 6.58752 12.0682V12.3882C6.58752 12.4397 6.62949 12.4817 6.68106 12.4817C6.73264 12.4817 6.77459 12.4397 6.77459 12.3882V12.0682C6.77459 12.0164 6.73264 11.9747 6.68106 11.9747ZM6.68106 11.3349C6.62949 11.3349 6.58752 11.3768 6.58752 11.4284V11.7483C6.58752 11.7999 6.62949 11.8419 6.68106 11.8419C6.73264 11.8419 6.77459 11.7999 6.77459 11.7483V11.4284C6.77459 11.3768 6.73264 11.3349 6.68106 11.3349ZM6.68106 10.695C6.62949 10.695 6.58752 10.737 6.58752 10.7886V11.1085C6.58752 11.1601 6.62949 11.202 6.68106 11.202C6.73264 11.202 6.77459 11.1601 6.77459 11.1085V10.7886C6.77459 10.737 6.73264 10.695 6.68106 10.695ZM6.68106 10.0552C6.62949 10.0552 6.58752 10.0971 6.58752 10.1487V10.4686C6.58752 10.5202 6.62949 10.5622 6.68106 10.5622C6.73264 10.5622 6.77459 10.5202 6.77459 10.4686V10.1487C6.77459 10.0971 6.73264 10.0552 6.68106 10.0552ZM6.68106 9.41534C6.62949 9.41534 6.58752 9.4573 6.58752 9.50887V9.8288C6.58752 9.88038 6.62949 9.92234 6.68106 9.92234C6.73264 9.92234 6.77459 9.88038 6.77459 9.8288V9.50887C6.77459 9.4573 6.73264 9.41534 6.68106 9.41534ZM6.68106 8.77548C6.62949 8.77548 6.58752 8.81744 6.58752 8.86901V9.18894C6.58752 9.24052 6.62949 9.28248 6.68106 9.28248C6.73264 9.28248 6.77459 9.24052 6.77459 9.18894V8.86901C6.77459 8.81744 6.73264 8.77548 6.68106 8.77548ZM6.68106 8.13564C6.62949 8.13564 6.58752 8.1776 6.58752 8.22918V8.54911C6.58752 8.60096 6.62949 8.64264 6.68106 8.64264C6.73264 8.64264 6.77459 8.60094 6.77459 8.54911V8.22918C6.77459 8.1776 6.73264 8.13564 6.68106 8.13564ZM6.68106 7.49578C6.62949 7.49578 6.58752 7.53774 6.58752 7.58932V7.90925C6.58752 7.9611 6.62949 8.00278 6.68106 8.00278C6.73264 8.00278 6.77459 7.96108 6.77459 7.90925V7.58932C6.77459 7.53774 6.73264 7.49578 6.68106 7.49578ZM6.68106 6.8562C6.62949 6.8562 6.58752 6.89791 6.58752 6.94974V7.26939C6.58752 7.32124 6.62949 7.36292 6.68106 7.36292C6.73264 7.36292 6.77459 7.32122 6.77459 7.26939V6.94974C6.77459 6.89788 6.73264 6.8562 6.68106 6.8562ZM6.68106 6.21637C6.62949 6.21637 6.58752 6.25807 6.58752 6.3099V6.62983C6.58752 6.68141 6.62949 6.72337 6.68106 6.72337C6.73264 6.72337 6.77459 6.68141 6.77459 6.62983V6.3099C6.77459 6.25805 6.73264 6.21637 6.68106 6.21637ZM6.68106 5.57653C6.62949 5.57653 6.58752 5.61824 6.58752 5.67007V5.99C6.58752 6.04157 6.62949 6.08353 6.68106 6.08353C6.73264 6.08353 6.77459 6.04157 6.77459 5.99V5.67007C6.77459 5.61821 6.73264 5.57653 6.68106 5.57653ZM6.68106 4.93667C6.62949 4.93667 6.58752 4.97863 6.58752 5.03021V5.35014C6.58752 5.40171 6.62949 5.44367 6.68106 5.44367C6.73264 5.44367 6.77459 5.40171 6.77459 5.35014V5.03021C6.77459 4.97863 6.73264 4.93667 6.68106 4.93667ZM6.68106 4.29684C6.62949 4.29684 6.58752 4.3388 6.58752 4.39037V4.7103C6.58752 4.76188 6.62949 4.80383 6.68106 4.80383C6.73264 4.80383 6.77459 4.76188 6.77459 4.7103V4.39037C6.77459 4.3388 6.73264 4.29684 6.68106 4.29684ZM6.68106 3.65698C6.62949 3.65698 6.58752 3.69894 6.58752 3.75051V4.07044C6.58752 4.12202 6.62949 4.16398 6.68106 4.16398C6.73264 4.16398 6.77459 4.12202 6.77459 4.07044V3.75051C6.77459 3.69894 6.73264 3.65698 6.68106 3.65698ZM6.68106 3.01714C6.62949 3.01714 6.58752 3.0591 6.58752 3.11068V3.43061C6.58752 3.48218 6.62949 3.52414 6.68106 3.52414C6.73264 3.52414 6.77459 3.48218 6.77459 3.43061V3.11068C6.77459 3.0591 6.73264 3.01714 6.68106 3.01714ZM6.68106 2.37728C6.62949 2.37728 6.58752 2.41924 6.58752 2.47082V2.79075C6.58752 2.8426 6.62949 2.88428 6.68106 2.88428C6.73264 2.88428 6.77459 2.84258 6.77459 2.79075V2.47082C6.77459 2.41924 6.73264 2.37728 6.68106 2.37728ZM6.68106 1.73745C6.62949 1.73745 6.58752 1.77941 6.58752 1.83098V2.15091C6.58752 2.20276 6.62949 2.24444 6.68106 2.24444C6.73264 2.24444 6.77459 2.20274 6.77459 2.15091V1.83098C6.77459 1.77941 6.73264 1.73745 6.68106 1.73745ZM6.68106 1.09759C6.62949 1.09759 6.58752 1.13955 6.58752 1.19112V1.51105C6.58752 1.56291 6.62949 1.60459 6.68106 1.60459C6.73264 1.60459 6.77459 1.56288 6.77459 1.51105V1.19112C6.77459 1.13955 6.73264 1.09759 6.68106 1.09759ZM6.68106 0.458008C6.62949 0.458008 6.58752 0.49971 6.58752 0.551542V0.871472C6.58752 0.923047 6.62949 0.965006 6.68106 0.965006C6.73264 0.965006 6.77459 0.923047 6.77459 0.871472V0.551542C6.77459 0.499687 6.73264 0.458008 6.68106 0.458008Z" fill="#685417"/>
<path d="M6.77462 13.991V14.212C6.71207 14.2094 6.64953 14.2056 6.58752 14.2008V13.991C6.58752 13.9394 6.62949 13.8975 6.68106 13.8975C6.73264 13.8975 6.77462 13.9394 6.77462 13.991Z" fill="#685417"/>
<path d="M7.62518 0.0261039V0.236177C7.62518 0.287752 7.58322 0.329711 7.53164 0.329711C7.48007 0.329711 7.43811 0.287752 7.43811 0.236177V0.0151367C7.50065 0.0178144 7.56292 0.0215402 7.6252 0.0261039H7.62518Z" fill="#685417"/>
<path d="M7.53164 13.2541C7.48007 13.2541 7.43811 13.2961 7.43811 13.3477V13.6676C7.43811 13.7195 7.48007 13.7611 7.53164 13.7611C7.58322 13.7611 7.62518 13.7194 7.62518 13.6676V13.3477C7.62518 13.2961 7.58322 13.2541 7.53164 13.2541ZM7.53164 12.6146C7.48007 12.6146 7.43811 12.6563 7.43811 12.7081V13.028C7.43811 13.0796 7.48007 13.1216 7.53164 13.1216C7.58322 13.1216 7.62518 13.0796 7.62518 13.028V12.7081C7.62518 12.6562 7.58322 12.6146 7.53164 12.6146ZM7.53164 11.9747C7.48007 11.9747 7.43811 12.0164 7.43811 12.0682V12.3882C7.43811 12.4397 7.48007 12.4817 7.53164 12.4817C7.58322 12.4817 7.62518 12.4397 7.62518 12.3882V12.0682C7.62518 12.0164 7.58322 11.9747 7.53164 11.9747ZM7.53164 11.3349C7.48007 11.3349 7.43811 11.3768 7.43811 11.4284V11.7483C7.43811 11.7999 7.48007 11.8419 7.53164 11.8419C7.58322 11.8419 7.62518 11.7999 7.62518 11.7483V11.4284C7.62518 11.3768 7.58322 11.3349 7.53164 11.3349ZM7.53164 10.695C7.48007 10.695 7.43811 10.737 7.43811 10.7886V11.1085C7.43811 11.1601 7.48007 11.202 7.53164 11.202C7.58322 11.202 7.62518 11.1601 7.62518 11.1085V10.7886C7.62518 10.737 7.58322 10.695 7.53164 10.695ZM7.53164 10.0552C7.48007 10.0552 7.43811 10.0971 7.43811 10.1487V10.4686C7.43811 10.5202 7.48007 10.5622 7.53164 10.5622C7.58322 10.5622 7.62518 10.5202 7.62518 10.4686V10.1487C7.62518 10.0971 7.58322 10.0552 7.53164 10.0552ZM7.53164 9.41534C7.48007 9.41534 7.43811 9.4573 7.43811 9.50887V9.8288C7.43811 9.88038 7.48007 9.92234 7.53164 9.92234C7.58322 9.92234 7.62518 9.88038 7.62518 9.8288V9.50887C7.62518 9.4573 7.58322 9.41534 7.53164 9.41534ZM7.53164 8.77548C7.48007 8.77548 7.43811 8.81744 7.43811 8.86901V9.18894C7.43811 9.24052 7.48007 9.28248 7.53164 9.28248C7.58322 9.28248 7.62518 9.24052 7.62518 9.18894V8.86901C7.62518 8.81744 7.58322 8.77548 7.53164 8.77548ZM7.53164 8.13564C7.48007 8.13564 7.43811 8.1776 7.43811 8.22918V8.54911C7.43811 8.60096 7.48007 8.64264 7.53164 8.64264C7.58322 8.64264 7.62518 8.60094 7.62518 8.54911V8.22918C7.62518 8.1776 7.58322 8.13564 7.53164 8.13564ZM7.53164 7.49578C7.48007 7.49578 7.43811 7.53774 7.43811 7.58932V7.90925C7.43811 7.9611 7.48007 8.00278 7.53164 8.00278C7.58322 8.00278 7.62518 7.96108 7.62518 7.90925V7.58932C7.62518 7.53774 7.58322 7.49578 7.53164 7.49578ZM7.53164 6.8562C7.48007 6.8562 7.43811 6.89791 7.43811 6.94974V7.26939C7.43811 7.32124 7.48007 7.36292 7.53164 7.36292C7.58322 7.36292 7.62518 7.32122 7.62518 7.26939V6.94974C7.62518 6.89788 7.58322 6.8562 7.53164 6.8562ZM7.53164 6.21637C7.48007 6.21637 7.43811 6.25807 7.43811 6.3099V6.62983C7.43811 6.68141 7.48007 6.72337 7.53164 6.72337C7.58322 6.72337 7.62518 6.68141 7.62518 6.62983V6.3099C7.62518 6.25805 7.58322 6.21637 7.53164 6.21637ZM7.53164 5.57653C7.48007 5.57653 7.43811 5.61824 7.43811 5.67007V5.99C7.43811 6.04157 7.48007 6.08353 7.53164 6.08353C7.58322 6.08353 7.62518 6.04157 7.62518 5.99V5.67007C7.62518 5.61821 7.58322 5.57653 7.53164 5.57653ZM7.53164 4.93667C7.48007 4.93667 7.43811 4.97863 7.43811 5.03021V5.35014C7.43811 5.40171 7.48007 5.44367 7.53164 5.44367C7.58322 5.44367 7.62518 5.40171 7.62518 5.35014V5.03021C7.62518 4.97863 7.58322 4.93667 7.53164 4.93667ZM7.53164 4.29684C7.48007 4.29684 7.43811 4.3388 7.43811 4.39037V4.7103C7.43811 4.76188 7.48007 4.80383 7.53164 4.80383C7.58322 4.80383 7.62518 4.76188 7.62518 4.7103V4.39037C7.62518 4.3388 7.58322 4.29684 7.53164 4.29684ZM7.53164 3.65698C7.48007 3.65698 7.43811 3.69894 7.43811 3.75051V4.07044C7.43811 4.12202 7.48007 4.16398 7.53164 4.16398C7.58322 4.16398 7.62518 4.12202 7.62518 4.07044V3.75051C7.62518 3.69894 7.58322 3.65698 7.53164 3.65698ZM7.53164 3.01714C7.48007 3.01714 7.43811 3.0591 7.43811 3.11068V3.43061C7.43811 3.48218 7.48007 3.52414 7.53164 3.52414C7.58322 3.52414 7.62518 3.48218 7.62518 3.43061V3.11068C7.62518 3.0591 7.58322 3.01714 7.53164 3.01714ZM7.53164 2.37728C7.48007 2.37728 7.43811 2.41924 7.43811 2.47082V2.79075C7.43811 2.8426 7.48007 2.88428 7.53164 2.88428C7.58322 2.88428 7.62518 2.84258 7.62518 2.79075V2.47082C7.62518 2.41924 7.58322 2.37728 7.53164 2.37728ZM7.53164 1.73745C7.48007 1.73745 7.43811 1.77941 7.43811 1.83098V2.15091C7.43811 2.20276 7.48007 2.24444 7.53164 2.24444C7.58322 2.24444 7.62518 2.20274 7.62518 2.15091V1.83098C7.62518 1.77941 7.58322 1.73745 7.53164 1.73745ZM7.53164 1.09759C7.48007 1.09759 7.43811 1.13955 7.43811 1.19112V1.51105C7.43811 1.56291 7.48007 1.60459 7.53164 1.60459C7.58322 1.60459 7.62518 1.56288 7.62518 1.51105V1.19112C7.62518 1.13955 7.58322 1.09759 7.53164 1.09759ZM7.53164 0.458008C7.48007 0.458008 7.43811 0.49971 7.43811 0.551542V0.871472C7.43811 0.923047 7.48007 0.965006 7.53164 0.965006C7.58322 0.965006 7.62518 0.923047 7.62518 0.871472V0.551542C7.62518 0.499687 7.58322 0.458008 7.53164 0.458008Z" fill="#685417"/>
<path d="M7.6252 13.991V14.2011C7.56291 14.2056 7.50065 14.2094 7.43811 14.212V13.991C7.43811 13.9394 7.48007 13.8975 7.53164 13.8975C7.58322 13.8975 7.6252 13.9394 7.6252 13.991Z" fill="#685417"/>
<path d="M6.02831 13.9604C6.01345 13.9604 5.99836 13.9569 5.98434 13.9494L5.69454 13.7947C5.64898 13.7704 5.63172 13.7138 5.65606 13.6682C5.68036 13.6226 5.73702 13.6053 5.78261 13.6297L6.07241 13.7843C6.11797 13.8087 6.13523 13.8653 6.1109 13.9109C6.09406 13.9424 6.06172 13.9604 6.02828 13.9604L6.02831 13.9604Z" fill="#685417"/>
<path d="M6.02831 13.5683C6.01345 13.5683 5.99836 13.5648 5.98434 13.5573L5.69454 13.4026C5.64898 13.3783 5.63172 13.3217 5.65606 13.2761C5.68036 13.2305 5.73702 13.2133 5.78261 13.2376L6.07241 13.3922C6.11797 13.4165 6.13523 13.4732 6.1109 13.5188C6.09406 13.5503 6.06172 13.5683 6.02828 13.5683L6.02831 13.5683Z" fill="#685417"/>
<path d="M6.02831 13.1689C6.01346 13.1689 5.99837 13.1654 5.98435 13.1579L5.69455 13.0033C5.64896 12.9789 5.63173 12.9223 5.65606 12.8767C5.68037 12.8311 5.73702 12.8138 5.78261 12.8382L6.07241 12.9929C6.118 13.0172 6.13523 13.0738 6.1109 13.1194C6.09407 13.151 6.06172 13.169 6.02829 13.169L6.02831 13.1689Z" fill="#685417"/>
<path d="M6.02831 12.7822C6.01346 12.7822 5.99837 12.7787 5.98435 12.7712L5.69455 12.6165C5.64896 12.5922 5.63173 12.5356 5.65606 12.49C5.68037 12.4444 5.73702 12.4271 5.78261 12.4515L6.07241 12.6062C6.118 12.6305 6.13523 12.6871 6.1109 12.7327C6.09407 12.7643 6.06172 12.7823 6.02829 12.7823L6.02831 12.7822Z" fill="#685417"/>
<path d="M6.02831 12.3891C6.01345 12.3891 5.99836 12.3856 5.98434 12.3781L5.69454 12.2235C5.64898 12.1991 5.63172 12.1425 5.65606 12.0969C5.68036 12.0513 5.73702 12.034 5.78261 12.0584L6.07241 12.213C6.11797 12.2374 6.13523 12.294 6.1109 12.3396C6.09406 12.3711 6.06172 12.3891 6.02828 12.3891L6.02831 12.3891Z" fill="#685417"/>
<path d="M6.02831 11.997C6.01345 11.997 5.99836 11.9935 5.98434 11.986L5.69454 11.8314C5.64898 11.807 5.63172 11.7504 5.65606 11.7048C5.68036 11.6592 5.73702 11.642 5.78261 11.6663L6.07241 11.8209C6.11797 11.8453 6.13523 11.9019 6.1109 11.9475C6.09406 11.979 6.06172 11.997 6.02828 11.997L6.02831 11.997Z" fill="#685417"/>
<path d="M6.02831 11.604C6.01345 11.604 5.99836 11.6004 5.98434 11.5929L5.69454 11.4383C5.64898 11.414 5.63172 11.3573 5.65606 11.3118C5.68036 11.2662 5.73702 11.2489 5.78261 11.2733L6.07241 11.4279C6.11797 11.4522 6.13523 11.5089 6.1109 11.5544C6.09406 11.586 6.06172 11.604 6.02828 11.604L6.02831 11.604Z" fill="#685417"/>
<path d="M6.02831 11.2109C6.01346 11.2109 5.99837 11.2074 5.98435 11.1999L5.69455 11.0452C5.64896 11.0209 5.63173 10.9643 5.65606 10.9187C5.68037 10.8731 5.73702 10.8558 5.78261 10.8802L6.07241 11.0349C6.118 11.0592 6.13523 11.1158 6.1109 11.1614C6.09407 11.193 6.06172 11.211 6.02829 11.211L6.02831 11.2109Z" fill="#685417"/>
<path d="M6.02831 10.8188C6.01346 10.8188 5.99837 10.8153 5.98435 10.8078L5.69455 10.6531C5.64896 10.6288 5.63173 10.5722 5.65606 10.5266C5.68037 10.481 5.73702 10.4637 5.78261 10.4881L6.07241 10.6428C6.118 10.6671 6.13523 10.7237 6.1109 10.7693C6.09407 10.8009 6.06172 10.8189 6.02829 10.8189L6.02831 10.8188Z" fill="#685417"/>
<path d="M6.02831 10.4262C6.01345 10.4262 5.99836 10.4227 5.98434 10.4152L5.69454 10.2606C5.64898 10.2362 5.63172 10.1796 5.65606 10.134C5.68036 10.0885 5.73702 10.0711 5.78261 10.0955L6.07241 10.2501C6.11797 10.2745 6.13523 10.3311 6.1109 10.3767C6.09406 10.4083 6.06172 10.4262 6.02828 10.4262L6.02831 10.4262Z" fill="#685417"/>
<path d="M6.02831 10.0332C6.01345 10.0332 5.99836 10.0296 5.98434 10.0221L5.69454 9.8675C5.64898 9.84317 5.63172 9.78652 5.65606 9.74095C5.68036 9.69538 5.73702 9.67808 5.78261 9.70246L6.07241 9.85707C6.11797 9.8814 6.13523 9.93806 6.1109 9.98362C6.09406 10.0152 6.06172 10.0332 6.02828 10.0332L6.02831 10.0332Z" fill="#685417"/>
<path d="M6.02831 9.64062C6.01346 9.64062 5.99837 9.63708 5.98435 9.62958L5.69455 9.47493C5.64896 9.45059 5.63173 9.39394 5.65606 9.34837C5.68037 9.30281 5.73702 9.28551 5.78261 9.30988L6.07241 9.46454C6.118 9.48887 6.13523 9.54552 6.1109 9.59109C6.09407 9.62264 6.06172 9.64064 6.02829 9.64064L6.02831 9.64062Z" fill="#685417"/>
<path d="M6.02831 9.24803C6.01346 9.24803 5.99837 9.24449 5.98435 9.237L5.69455 9.08234C5.64896 9.05801 5.63173 9.00136 5.65606 8.95579C5.68037 8.9102 5.73702 8.89294 5.78261 8.9173L6.07241 9.07196C6.118 9.09629 6.13523 9.15294 6.1109 9.19851C6.09407 9.23006 6.06172 9.24806 6.02829 9.24806L6.02831 9.24803Z" fill="#685417"/>
<path d="M6.02831 8.85496C6.01346 8.85496 5.99837 8.85142 5.98435 8.84392L5.69455 8.68929C5.64896 8.66496 5.63173 8.60831 5.65606 8.56274C5.68037 8.51717 5.73702 8.49985 5.78261 8.52425L6.07241 8.67888C6.118 8.70321 6.13523 8.75987 6.1109 8.80543C6.09407 8.83698 6.06172 8.85498 6.02829 8.85498L6.02831 8.85496Z" fill="#685417"/>
<path d="M6.02831 8.46187C6.01345 8.46187 5.99836 8.45834 5.98434 8.45084L5.69454 8.29623C5.64898 8.27192 5.63172 8.21525 5.65606 8.16968C5.68036 8.12409 5.73702 8.10679 5.78261 8.13119L6.07241 8.2858C6.11797 8.31011 6.13523 8.36678 6.1109 8.41235C6.09406 8.4439 6.06172 8.46187 6.02828 8.46187H6.02831Z" fill="#685417"/>
<path d="M6.02831 8.06931C6.01346 8.06931 5.99837 8.06577 5.98435 8.05827L5.69455 7.90364C5.64896 7.8793 5.63173 7.82265 5.65606 7.77709C5.68037 7.73152 5.73702 7.71422 5.78261 7.7386L6.07241 7.89323C6.118 7.91756 6.13523 7.97421 6.1109 8.01978C6.09407 8.05133 6.06172 8.06931 6.02829 8.06931H6.02831Z" fill="#685417"/>
<path d="M6.02831 7.6689C6.01345 7.6689 5.99836 7.66536 5.98434 7.65786L5.69454 7.50326C5.64898 7.47895 5.63172 7.42227 5.65606 7.3767C5.68036 7.33114 5.73702 7.31381 5.78261 7.33822L6.07241 7.49282C6.11797 7.51713 6.13523 7.57381 6.1109 7.61938C6.09406 7.65093 6.06172 7.6689 6.02828 7.6689H6.02831Z" fill="#685417"/>
<path d="M6.02831 7.27683C6.01346 7.27683 5.99837 7.27329 5.98435 7.26579L5.69455 7.11116C5.64896 7.08682 5.63173 7.03017 5.65606 6.9846C5.68037 6.93904 5.73702 6.92174 5.78261 6.94611L6.07241 7.10075C6.118 7.12508 6.13523 7.18173 6.1109 7.2273C6.09407 7.25885 6.06172 7.27683 6.02829 7.27683H6.02831Z" fill="#685417"/>
<path d="M6.02831 6.88377C6.01346 6.88377 5.99837 6.88023 5.98435 6.87274L5.69455 6.7181C5.64896 6.69377 5.63173 6.63712 5.65606 6.59155C5.68037 6.54596 5.73702 6.52866 5.78261 6.55306L6.07241 6.7077C6.118 6.73203 6.13523 6.78868 6.1109 6.83425C6.09407 6.8658 6.06172 6.88377 6.02829 6.88377H6.02831Z" fill="#685417"/>
<path d="M6.02831 6.4907C6.01346 6.4907 5.99837 6.48716 5.98435 6.47966L5.69455 6.32503C5.64896 6.30069 5.63173 6.24404 5.65606 6.19848C5.68037 6.15288 5.73702 6.13561 5.78261 6.15999L6.07241 6.31462C6.118 6.33895 6.13523 6.3956 6.1109 6.44117C6.09407 6.47272 6.06172 6.4907 6.02829 6.4907H6.02831Z" fill="#685417"/>
<path d="M6.02831 6.09764C6.01346 6.09764 5.99837 6.0941 5.98435 6.0866L5.69455 5.93197C5.64896 5.90763 5.63173 5.85098 5.65606 5.80542C5.68037 5.75985 5.73702 5.74252 5.78261 5.76693L6.07241 5.92156C6.118 5.94589 6.13523 6.00254 6.1109 6.04811C6.09407 6.07966 6.06172 6.09764 6.02829 6.09764H6.02831Z" fill="#685417"/>
<path d="M6.02831 5.71239C6.01346 5.71239 5.99837 5.70885 5.98435 5.70135L5.69455 5.54672C5.64896 5.52239 5.63173 5.46573 5.65606 5.42017C5.68037 5.37458 5.73702 5.35727 5.78261 5.38168L6.07241 5.53631C6.118 5.56064 6.13523 5.61729 6.1109 5.66286C6.09407 5.69441 6.06172 5.71239 6.02829 5.71239H6.02831Z" fill="#685417"/>
<path d="M6.02831 5.31979C6.01346 5.31979 5.99837 5.31625 5.98435 5.30876L5.69455 5.15412C5.64896 5.12979 5.63173 5.07314 5.65606 5.02757C5.68037 4.98201 5.73702 4.9647 5.78261 4.98908L6.07241 5.14372C6.118 5.16805 6.13523 5.2247 6.1109 5.27027C6.09407 5.30182 6.06172 5.31979 6.02829 5.31979H6.02831Z" fill="#685417"/>
<path d="M6.02831 4.92674C6.01346 4.92674 5.99837 4.9232 5.98435 4.91571L5.69455 4.76107C5.64896 4.73674 5.63173 4.68009 5.65606 4.63452C5.68037 4.58893 5.73702 4.57163 5.78261 4.59603L6.07241 4.75066C6.118 4.775 6.13523 4.83165 6.1109 4.87722C6.09407 4.90877 6.06172 4.92674 6.02829 4.92674H6.02831Z" fill="#685417"/>
<path d="M6.02831 4.53415C6.01346 4.53415 5.99837 4.53061 5.98435 4.52311L5.69455 4.36848C5.64896 4.34415 5.63173 4.2875 5.65606 4.24193C5.68037 4.19636 5.73702 4.17906 5.78261 4.20344L6.07241 4.35807C6.118 4.3824 6.13523 4.43906 6.1109 4.48462C6.09407 4.51617 6.06172 4.53415 6.02829 4.53415H6.02831Z" fill="#685417"/>
<path d="M6.02831 4.14106C6.01345 4.14106 5.99836 4.13752 5.98434 4.13003L5.69454 3.97542C5.64898 3.95111 5.63172 3.89443 5.65606 3.84887C5.68036 3.80328 5.73702 3.786 5.78261 3.81038L6.07241 3.96499C6.11797 3.9893 6.13523 4.04597 6.1109 4.09154C6.09406 4.12309 6.06172 4.14106 6.02828 4.14106H6.02831Z" fill="#685417"/>
<path d="M6.02831 3.74851C6.01346 3.74851 5.99837 3.74497 5.98435 3.73747L5.69455 3.58284C5.64896 3.55851 5.63173 3.50186 5.65606 3.45629C5.68037 3.4107 5.73702 3.39342 5.78261 3.4178L6.07241 3.57243C6.118 3.59676 6.13523 3.65342 6.1109 3.69898C6.09407 3.73053 6.06172 3.74851 6.02829 3.74851H6.02831Z" fill="#685417"/>
<path d="M6.02831 3.35542C6.01345 3.35542 5.99836 3.35188 5.98434 3.34438L5.69454 3.18977C5.64898 3.16546 5.63172 3.10879 5.65606 3.06322C5.68036 3.01763 5.73702 3.00035 5.78261 3.02473L6.07241 3.17934C6.11797 3.20365 6.13523 3.26033 6.1109 3.30589C6.09406 3.33744 6.06172 3.35542 6.02828 3.35542H6.02831Z" fill="#685417"/>
<path d="M6.02831 2.96288C6.01346 2.96288 5.99837 2.95934 5.98435 2.95184L5.69455 2.79721C5.64896 2.77287 5.63173 2.71622 5.65606 2.67065C5.68037 2.62506 5.73702 2.60776 5.78261 2.63216L6.07241 2.7868C6.118 2.81113 6.13523 2.86778 6.1109 2.91335C6.09407 2.9449 6.06172 2.96288 6.02829 2.96288H6.02831Z" fill="#685417"/>
<path d="M6.02831 2.56979C6.01346 2.56979 5.99837 2.56626 5.98435 2.55876L5.69455 2.40412C5.64896 2.37979 5.63173 2.32314 5.65606 2.27757C5.68037 2.232 5.73702 2.21471 5.78261 2.23908L6.07241 2.39372C6.118 2.41805 6.13523 2.4747 6.1109 2.52027C6.09407 2.55182 6.06172 2.56979 6.02829 2.56979H6.02831Z" fill="#685417"/>
<path d="M6.02831 2.17721C6.01346 2.17721 5.99837 2.17367 5.98435 2.16617L5.69455 2.01154C5.64896 1.98721 5.63173 1.93056 5.65606 1.88499C5.68037 1.8394 5.73702 1.82214 5.78261 1.8465L6.07241 2.00113C6.118 2.02547 6.13523 2.08212 6.1109 2.12768C6.09407 2.15923 6.06172 2.17721 6.02829 2.17721H6.02831Z" fill="#685417"/>
<path d="M6.02831 1.78464C6.01346 1.78464 5.99837 1.7811 5.98435 1.77361L5.69455 1.61897C5.64896 1.59464 5.63173 1.53799 5.65606 1.49242C5.68037 1.44683 5.73702 1.42955 5.78261 1.45393L6.07241 1.60856C6.118 1.6329 6.13523 1.68955 6.1109 1.73512C6.09407 1.76667 6.06172 1.78464 6.02829 1.78464H6.02831Z" fill="#685417"/>
<path d="M6.02831 1.39255C6.01346 1.39255 5.99837 1.38901 5.98435 1.38152L5.69455 1.22688C5.64896 1.20255 5.63173 1.1459 5.65606 1.10033C5.68037 1.05474 5.73702 1.03746 5.78261 1.06184L6.07241 1.21647C6.118 1.24081 6.13523 1.29746 6.1109 1.34303C6.09407 1.37458 6.06172 1.39255 6.02829 1.39255H6.02831Z" fill="#685417"/>
<path d="M6.02831 0.999486C6.01346 0.999486 5.99837 0.995946 5.98435 0.988449L5.69455 0.833816C5.64896 0.809484 5.63173 0.752833 5.65606 0.707265C5.68037 0.661674 5.73702 0.644397 5.78261 0.668776L6.07241 0.823408C6.118 0.847741 6.13523 0.904392 6.1109 0.94996C6.09407 0.98151 6.06172 0.999486 6.02829 0.999486H6.02831Z" fill="#685417"/>
<path d="M6.02831 0.60642C6.01346 0.60642 5.99837 0.602881 5.98435 0.595383L5.69455 0.44075C5.64896 0.416418 5.63173 0.359766 5.65606 0.314198C5.68037 0.268607 5.73702 0.251331 5.78261 0.275709L6.07241 0.430342C6.118 0.454674 6.13523 0.511326 6.1109 0.556893C6.09407 0.588444 6.06172 0.60642 6.02829 0.60642H6.02831Z" fill="#685417"/>
<path d="M5.51791 13.9604C5.50305 13.9604 5.48797 13.9569 5.47395 13.9494L5.18417 13.7947C5.13858 13.7704 5.12135 13.7138 5.14568 13.6682C5.16999 13.6226 5.22664 13.6053 5.27223 13.6297L5.56201 13.7843C5.6076 13.8087 5.62483 13.8653 5.6005 13.9109C5.58367 13.9424 5.55132 13.9604 5.51789 13.9604L5.51791 13.9604Z" fill="#685417"/>
<path d="M5.51791 13.5683C5.50305 13.5683 5.48797 13.5648 5.47395 13.5573L5.18417 13.4026C5.13858 13.3783 5.12135 13.3217 5.14568 13.2761C5.16999 13.2305 5.22664 13.2133 5.27223 13.2376L5.56201 13.3922C5.6076 13.4165 5.62483 13.4732 5.6005 13.5188C5.58367 13.5503 5.55132 13.5683 5.51789 13.5683L5.51791 13.5683Z" fill="#685417"/>
<path d="M5.51791 13.1689C5.50305 13.1689 5.48797 13.1654 5.47395 13.1579L5.18417 13.0033C5.13858 12.9789 5.12135 12.9223 5.14568 12.8767C5.16999 12.8311 5.22664 12.8138 5.27223 12.8382L5.56201 12.9929C5.6076 13.0172 5.62483 13.0738 5.6005 13.1194C5.58367 13.151 5.55132 13.169 5.51789 13.169L5.51791 13.1689Z" fill="#685417"/>
<path d="M5.51791 12.7822C5.50305 12.7822 5.48797 12.7787 5.47395 12.7712L5.18417 12.6165C5.13858 12.5922 5.12135 12.5356 5.14568 12.49C5.16999 12.4444 5.22664 12.4271 5.27223 12.4515L5.56201 12.6062C5.6076 12.6305 5.62483 12.6871 5.6005 12.7327C5.58367 12.7643 5.55132 12.7823 5.51789 12.7823L5.51791 12.7822Z" fill="#685417"/>
<path d="M5.51791 12.3891C5.50305 12.3891 5.48797 12.3856 5.47395 12.3781L5.18417 12.2235C5.13858 12.1991 5.12135 12.1425 5.14568 12.0969C5.16999 12.0513 5.22664 12.034 5.27223 12.0584L5.56201 12.213C5.6076 12.2374 5.62483 12.294 5.6005 12.3396C5.58367 12.3711 5.55132 12.3891 5.51789 12.3891L5.51791 12.3891Z" fill="#685417"/>
<path d="M5.51791 11.997C5.50305 11.997 5.48797 11.9935 5.47395 11.986L5.18417 11.8314C5.13858 11.807 5.12135 11.7504 5.14568 11.7048C5.16999 11.6592 5.22664 11.642 5.27223 11.6663L5.56201 11.8209C5.6076 11.8453 5.62483 11.9019 5.6005 11.9475C5.58367 11.979 5.55132 11.997 5.51789 11.997L5.51791 11.997Z" fill="#685417"/>
<path d="M5.51791 11.604C5.50305 11.604 5.48797 11.6004 5.47395 11.5929L5.18417 11.4383C5.13858 11.414 5.12135 11.3573 5.14568 11.3118C5.16999 11.2662 5.22664 11.2489 5.27223 11.2733L5.56201 11.4279C5.6076 11.4522 5.62483 11.5089 5.6005 11.5544C5.58367 11.586 5.55132 11.604 5.51789 11.604L5.51791 11.604Z" fill="#685417"/>
<path d="M5.51791 11.2109C5.50305 11.2109 5.48797 11.2074 5.47395 11.1999L5.18417 11.0452C5.13858 11.0209 5.12135 10.9643 5.14568 10.9187C5.16999 10.8731 5.22664 10.8558 5.27223 10.8802L5.56201 11.0349C5.6076 11.0592 5.62483 11.1158 5.6005 11.1614C5.58367 11.193 5.55132 11.211 5.51789 11.211L5.51791 11.2109Z" fill="#685417"/>
<path d="M5.51791 10.8188C5.50305 10.8188 5.48797 10.8153 5.47395 10.8078L5.18417 10.6531C5.13858 10.6288 5.12135 10.5722 5.14568 10.5266C5.16999 10.481 5.22664 10.4637 5.27223 10.4881L5.56201 10.6428C5.6076 10.6671 5.62483 10.7237 5.6005 10.7693C5.58367 10.8009 5.55132 10.8189 5.51789 10.8189L5.51791 10.8188Z" fill="#685417"/>
<path d="M5.51791 10.4262C5.50305 10.4262 5.48797 10.4227 5.47395 10.4152L5.18417 10.2606C5.13858 10.2362 5.12135 10.1796 5.14568 10.134C5.16999 10.0885 5.22664 10.0711 5.27223 10.0955L5.56201 10.2501C5.6076 10.2745 5.62483 10.3311 5.6005 10.3767C5.58367 10.4083 5.55132 10.4262 5.51789 10.4262L5.51791 10.4262Z" fill="#685417"/>
<path d="M5.51791 10.0332C5.50305 10.0332 5.48797 10.0296 5.47395 10.0221L5.18417 9.8675C5.13858 9.84317 5.12135 9.78652 5.14568 9.74095C5.16999 9.69538 5.22664 9.67808 5.27223 9.70246L5.56201 9.85707C5.6076 9.8814 5.62483 9.93806 5.6005 9.98362C5.58367 10.0152 5.55132 10.0332 5.51789 10.0332L5.51791 10.0332Z" fill="#685417"/>
<path d="M5.51791 9.64062C5.50305 9.64062 5.48797 9.63708 5.47395 9.62958L5.18417 9.47493C5.13858 9.45059 5.12135 9.39394 5.14568 9.34837C5.16999 9.30281 5.22664 9.28551 5.27223 9.30988L5.56201 9.46454C5.6076 9.48887 5.62483 9.54552 5.6005 9.59109C5.58367 9.62264 5.55132 9.64064 5.51789 9.64064L5.51791 9.64062Z" fill="#685417"/>
<path d="M5.51791 9.24803C5.50305 9.24803 5.48797 9.24449 5.47395 9.237L5.18417 9.08234C5.13858 9.05801 5.12135 9.00136 5.14568 8.95579C5.16999 8.9102 5.22664 8.89294 5.27223 8.9173L5.56201 9.07196C5.6076 9.09629 5.62483 9.15294 5.6005 9.19851C5.58367 9.23006 5.55132 9.24806 5.51789 9.24806L5.51791 9.24803Z" fill="#685417"/>
<path d="M5.51791 8.85496C5.50305 8.85496 5.48797 8.85142 5.47395 8.84393L5.18417 8.68929C5.13858 8.66496 5.12135 8.60831 5.14568 8.56272C5.16999 8.51715 5.22664 8.49987 5.27223 8.52423L5.56201 8.67886C5.6076 8.70319 5.62483 8.75985 5.6005 8.80541C5.58367 8.83696 5.55135 8.85496 5.51791 8.85496Z" fill="#685417"/>
<path d="M5.51791 8.46187C5.50305 8.46187 5.48797 8.45834 5.47395 8.45084L5.18417 8.29623C5.13858 8.2719 5.12135 8.21525 5.14568 8.16968C5.16999 8.12409 5.22664 8.10679 5.27223 8.13119L5.56201 8.2858C5.6076 8.31013 5.62483 8.36678 5.6005 8.41235C5.58367 8.4439 5.55135 8.46187 5.51791 8.46187Z" fill="#685417"/>
<path d="M5.51791 8.0693C5.50305 8.0693 5.48797 8.06576 5.47395 8.05826L5.18417 7.90363C5.13858 7.8793 5.12135 7.82265 5.14568 7.77705C5.16999 7.73149 5.22664 7.71426 5.27223 7.73856L5.56201 7.8932C5.6076 7.91753 5.62483 7.97418 5.6005 8.01977C5.58367 8.05132 5.55132 8.06927 5.51789 8.06927L5.51791 8.0693Z" fill="#685417"/>
<path d="M5.51791 7.6689C5.50305 7.6689 5.48797 7.66536 5.47395 7.65786L5.18417 7.50326C5.13858 7.47892 5.12135 7.42227 5.14568 7.3767C5.16999 7.33114 5.22664 7.31381 5.27223 7.33822L5.56201 7.49282C5.6076 7.51716 5.62483 7.57381 5.6005 7.61938C5.58367 7.65093 5.55135 7.6689 5.51791 7.6689Z" fill="#685417"/>
<path d="M5.51791 7.27683C5.50305 7.27683 5.48797 7.27329 5.47395 7.26579L5.18417 7.11116C5.13858 7.08683 5.12135 7.03018 5.14568 6.98458C5.16999 6.93902 5.22664 6.92176 5.27223 6.94609L5.56201 7.10073C5.6076 7.12506 5.62483 7.18171 5.6005 7.2273C5.58367 7.25885 5.55132 7.2768 5.51789 7.2768L5.51791 7.27683Z" fill="#685417"/>
<path d="M5.51791 6.88377C5.50305 6.88377 5.48797 6.88023 5.47395 6.87273L5.18417 6.7181C5.13858 6.69377 5.12135 6.63712 5.14568 6.59153C5.16999 6.54596 5.22664 6.52868 5.27223 6.55304L5.56201 6.70767C5.6076 6.732 5.62483 6.78865 5.6005 6.83425C5.58367 6.8658 5.55132 6.88375 5.51789 6.88375L5.51791 6.88377Z" fill="#685417"/>
<path d="M5.51791 6.4907C5.50305 6.4907 5.48797 6.48716 5.47395 6.47966L5.18417 6.32503C5.13858 6.30069 5.12135 6.24404 5.14568 6.19845C5.16999 6.15288 5.22664 6.13563 5.27223 6.15996L5.56201 6.31459C5.6076 6.33893 5.62483 6.39558 5.6005 6.44117C5.58367 6.47272 5.55132 6.49067 5.51789 6.49067L5.51791 6.4907Z" fill="#685417"/>
<path d="M5.51791 6.09764C5.50305 6.09764 5.48797 6.0941 5.47395 6.0866L5.18417 5.93197C5.13858 5.90764 5.12135 5.85099 5.14568 5.8054C5.16999 5.75983 5.22664 5.74255 5.27223 5.76691L5.56201 5.92154C5.6076 5.94587 5.62483 6.00252 5.6005 6.04811C5.58367 6.07966 5.55132 6.09762 5.51789 6.09762L5.51791 6.09764Z" fill="#685417"/>
<path d="M5.51791 5.71237C5.50305 5.71237 5.48797 5.70884 5.47395 5.70134L5.18417 5.54671C5.13858 5.52237 5.12135 5.46572 5.14568 5.42013C5.16999 5.37456 5.22664 5.35731 5.27223 5.38164L5.56201 5.53627C5.6076 5.56061 5.62483 5.61726 5.6005 5.66285C5.58367 5.6944 5.55132 5.71235 5.51789 5.71235L5.51791 5.71237Z" fill="#685417"/>
<path d="M5.51791 5.3198C5.50305 5.3198 5.48797 5.31626 5.47395 5.30876L5.18417 5.15413C5.13858 5.12979 5.12135 5.07314 5.14568 5.02755C5.16999 4.98198 5.22664 4.96473 5.27223 4.98906L5.56201 5.1437C5.6076 5.16803 5.62483 5.22468 5.6005 5.27027C5.58367 5.30182 5.55132 5.31977 5.51789 5.31977L5.51791 5.3198Z" fill="#685417"/>
<path d="M5.51791 4.92674C5.50305 4.92674 5.48797 4.9232 5.47395 4.9157L5.18417 4.76107C5.13858 4.73674 5.12135 4.68009 5.14568 4.6345C5.16999 4.58893 5.22664 4.57165 5.27223 4.59601L5.56201 4.75064C5.6076 4.77497 5.62483 4.83162 5.6005 4.87721C5.58367 4.90876 5.55132 4.92672 5.51789 4.92672L5.51791 4.92674Z" fill="#685417"/>
<path d="M5.51791 4.53415C5.50305 4.53415 5.48797 4.53061 5.47395 4.52312L5.18417 4.36848C5.13858 4.34415 5.12135 4.2875 5.14568 4.24191C5.16999 4.19634 5.22664 4.17909 5.27223 4.20342L5.56201 4.35805C5.6076 4.38238 5.62483 4.43904 5.6005 4.48463C5.58367 4.51618 5.55132 4.53413 5.51789 4.53413L5.51791 4.53415Z" fill="#685417"/>
<path d="M5.51791 4.14106C5.50305 4.14106 5.48797 4.13752 5.47395 4.13003L5.18417 3.97542C5.13858 3.95109 5.12135 3.89443 5.14568 3.84887C5.16999 3.80328 5.22664 3.786 5.27223 3.81038L5.56201 3.96499C5.6076 3.98932 5.62483 4.04597 5.6005 4.09154C5.58367 4.12309 5.55135 4.14106 5.51791 4.14106Z" fill="#685417"/>
<path d="M5.51791 3.7485C5.50305 3.7485 5.48797 3.74496 5.47395 3.73747L5.18417 3.58283C5.13858 3.5585 5.12135 3.50185 5.14568 3.45626C5.16999 3.41071 5.22664 3.39344 5.27223 3.41777L5.56201 3.5724C5.6076 3.59673 5.62483 3.65338 5.6005 3.69898C5.58367 3.73053 5.55132 3.74848 5.51789 3.74848L5.51791 3.7485Z" fill="#685417"/>
<path d="M5.51791 3.35542C5.50305 3.35542 5.48797 3.35188 5.47395 3.34438L5.18417 3.18977C5.13858 3.16544 5.12135 3.10879 5.14568 3.06322C5.16999 3.01763 5.22664 3.00035 5.27223 3.02473L5.56201 3.17934C5.6076 3.20367 5.62483 3.26033 5.6005 3.30589C5.58367 3.33744 5.55135 3.35542 5.51791 3.35542Z" fill="#685417"/>
<path d="M5.51791 2.96287C5.50305 2.96287 5.48797 2.95933 5.47395 2.95184L5.18417 2.7972C5.13858 2.77287 5.12135 2.71622 5.14568 2.67063C5.16999 2.62506 5.22664 2.60778 5.27223 2.63214L5.56201 2.78677C5.6076 2.8111 5.62483 2.86776 5.6005 2.91335C5.58367 2.9449 5.55132 2.96285 5.51789 2.96285L5.51791 2.96287Z" fill="#685417"/>
<path d="M5.51791 2.5698C5.50305 2.5698 5.48797 2.56626 5.47395 2.55876L5.18417 2.40413C5.13858 2.37979 5.12135 2.32314 5.14568 2.27755C5.16999 2.23198 5.22664 2.21473 5.27223 2.23906L5.56201 2.3937C5.6076 2.41803 5.62483 2.47468 5.6005 2.52027C5.58367 2.55182 5.55132 2.56977 5.51789 2.56977L5.51791 2.5698Z" fill="#685417"/>
<path d="M5.51791 2.17721C5.50305 2.17721 5.48797 2.17367 5.47395 2.16617L5.18417 2.01154C5.13858 1.98721 5.12135 1.93055 5.14568 1.88496C5.16999 1.8394 5.22664 1.82217 5.27223 1.84647L5.56201 2.00111C5.6076 2.02544 5.62483 2.08209 5.6005 2.12768C5.58367 2.15923 5.55132 2.17718 5.51789 2.17718L5.51791 2.17721Z" fill="#685417"/>
<path d="M5.51791 1.78464C5.50305 1.78464 5.48797 1.7811 5.47395 1.7736L5.18417 1.61897C5.13858 1.59464 5.12135 1.53799 5.14568 1.4924C5.16999 1.44683 5.22664 1.42957 5.27223 1.45391L5.56201 1.60854C5.6076 1.63287 5.62483 1.68952 5.6005 1.73511C5.58367 1.76666 5.55132 1.78462 5.51789 1.78462L5.51791 1.78464Z" fill="#685417"/>
<path d="M5.51791 1.39255C5.50305 1.39255 5.48797 1.38901 5.47395 1.38151L5.18417 1.22688C5.13858 1.20255 5.12135 1.1459 5.14568 1.10031C5.16999 1.05474 5.22664 1.03748 5.27223 1.06182L5.56201 1.21645C5.6076 1.24078 5.62483 1.29743 5.6005 1.34302C5.58367 1.37458 5.55132 1.39253 5.51789 1.39253L5.51791 1.39255Z" fill="#685417"/>
<path d="M5.51791 0.999479C5.50305 0.999479 5.48797 0.99594 5.47395 0.988442L5.18417 0.83381C5.13858 0.809478 5.12135 0.752826 5.14568 0.707235C5.16999 0.661691 5.22664 0.644414 5.27223 0.668746L5.56201 0.823379C5.6076 0.847711 5.62483 0.904362 5.6005 0.949953C5.58367 0.981504 5.55132 0.999457 5.51789 0.999457L5.51791 0.999479Z" fill="#685417"/>
<path d="M5.51791 0.606418C5.50305 0.606418 5.48797 0.602879 5.47395 0.595381L5.18417 0.440748C5.13858 0.416416 5.12135 0.359764 5.14568 0.314173C5.16999 0.268605 5.22664 0.251352 5.27223 0.275684L5.56201 0.430317C5.6076 0.454649 5.62483 0.5113 5.6005 0.556892C5.58367 0.588442 5.55132 0.606395 5.51789 0.606395L5.51791 0.606418Z" fill="#685417"/>
<path d="M8.18478 13.9604C8.15134 13.9604 8.119 13.9424 8.10217 13.9108C8.07783 13.8653 8.09507 13.8086 8.14066 13.7843L8.43043 13.6297C8.47602 13.6054 8.5327 13.6226 8.55698 13.6682C8.58131 13.7137 8.56408 13.7704 8.51849 13.7947L8.22872 13.9493C8.2147 13.9568 8.19961 13.9604 8.18476 13.9604L8.18478 13.9604Z" fill="#685417"/>
<path d="M8.18478 13.5683C8.15134 13.5683 8.119 13.5503 8.10217 13.5188C8.07783 13.4732 8.09507 13.4165 8.14066 13.3922L8.43043 13.2376C8.47602 13.2133 8.5327 13.2305 8.55698 13.2761C8.58131 13.3217 8.56408 13.3783 8.51849 13.4026L8.22872 13.5572C8.2147 13.5647 8.19961 13.5683 8.18476 13.5683L8.18478 13.5683Z" fill="#685417"/>
<path d="M8.18478 13.1689C8.15134 13.1689 8.119 13.151 8.10217 13.1194C8.07783 13.0738 8.09507 13.0171 8.14066 12.9928L8.43043 12.8382C8.47602 12.8139 8.5327 12.8311 8.55698 12.8767C8.58131 12.9222 8.56408 12.9789 8.51849 13.0032L8.22872 13.1579C8.2147 13.1654 8.19961 13.1689 8.18476 13.1689L8.18478 13.1689Z" fill="#685417"/>
<path d="M8.18478 12.7822C8.15134 12.7822 8.119 12.7643 8.10217 12.7327C8.07783 12.6871 8.09507 12.6304 8.14066 12.6061L8.43043 12.4515C8.47602 12.4271 8.5327 12.4444 8.55698 12.49C8.58131 12.5355 8.56408 12.5922 8.51849 12.6165L8.22872 12.7712C8.2147 12.7787 8.19961 12.7822 8.18476 12.7822L8.18478 12.7822Z" fill="#685417"/>
<path d="M8.18478 12.3891C8.15134 12.3891 8.119 12.3711 8.10217 12.3396C8.07783 12.294 8.09507 12.2373 8.14066 12.213L8.43043 12.0584C8.47602 12.0341 8.5327 12.0513 8.55698 12.0969C8.58131 12.1424 8.56408 12.1991 8.51849 12.2234L8.22872 12.378C8.2147 12.3855 8.19961 12.3891 8.18476 12.3891L8.18478 12.3891Z" fill="#685417"/>
<path d="M8.18478 11.997C8.15134 11.997 8.119 11.979 8.10217 11.9475C8.07783 11.9019 8.09507 11.8452 8.14066 11.8209L8.43043 11.6663C8.47602 11.642 8.5327 11.6592 8.55698 11.7048C8.58131 11.7504 8.56408 11.807 8.51849 11.8314L8.22872 11.986C8.2147 11.9935 8.19961 11.997 8.18476 11.997L8.18478 11.997Z" fill="#685417"/>
<path d="M8.18478 11.604C8.15134 11.604 8.119 11.586 8.10217 11.5544C8.07783 11.5088 8.09507 11.4522 8.14066 11.4279L8.43043 11.2732C8.47602 11.2489 8.5327 11.2662 8.55698 11.3117C8.58131 11.3573 8.56408 11.414 8.51849 11.4383L8.22872 11.5929C8.2147 11.6004 8.19961 11.6039 8.18476 11.6039L8.18478 11.604Z" fill="#685417"/>
<path d="M8.18478 11.2109C8.15134 11.2109 8.119 11.193 8.10217 11.1614C8.07783 11.1158 8.09507 11.0591 8.14066 11.0348L8.43043 10.8802C8.47602 10.8558 8.5327 10.8731 8.55698 10.9187C8.58131 10.9642 8.56408 11.0209 8.51849 11.0452L8.22872 11.1999C8.2147 11.2074 8.19961 11.2109 8.18476 11.2109L8.18478 11.2109Z" fill="#685417"/>
<path d="M8.18478 10.8189C8.15134 10.8189 8.119 10.8009 8.10217 10.7693C8.07783 10.7237 8.09507 10.6671 8.14066 10.6428L8.43043 10.4881C8.47602 10.4637 8.5327 10.481 8.55698 10.5266C8.58131 10.5722 8.56408 10.6288 8.51849 10.6531L8.22872 10.8078C8.2147 10.8153 8.19961 10.8188 8.18476 10.8188L8.18478 10.8189Z" fill="#685417"/>
<path d="M8.18478 10.4262C8.15134 10.4262 8.119 10.4083 8.10217 10.3767C8.07783 10.3311 8.09507 10.2744 8.14066 10.2501L8.43043 10.0955C8.47602 10.0712 8.5327 10.0884 8.55698 10.134C8.58131 10.1796 8.56408 10.2363 8.51849 10.2606L8.22872 10.4152C8.2147 10.4227 8.19961 10.4262 8.18476 10.4262L8.18478 10.4262Z" fill="#685417"/>
<path d="M8.18478 10.0331C8.15134 10.0331 8.119 10.0152 8.10217 9.9836C8.07783 9.93803 8.09507 9.88136 8.14066 9.85705L8.43043 9.70244C8.47602 9.67811 8.5327 9.69538 8.55698 9.74093C8.58131 9.78649 8.56408 9.84317 8.51849 9.86748L8.22872 10.0221C8.2147 10.0296 8.19961 10.0331 8.18476 10.0331L8.18478 10.0331Z" fill="#685417"/>
<path d="M8.18478 9.64063C8.15134 9.64063 8.119 9.62266 8.10217 9.59108C8.07783 9.54551 8.09507 9.48884 8.14066 9.46453L8.43043 9.30987C8.47602 9.28552 8.5327 9.3028 8.55698 9.34836C8.58131 9.39393 8.56408 9.45061 8.51849 9.47492L8.22872 9.62957C8.2147 9.63707 8.19961 9.64061 8.18476 9.64061L8.18478 9.64063Z" fill="#685417"/>
<path d="M8.18478 9.24804C8.15134 9.24804 8.119 9.23007 8.10217 9.19849C8.07783 9.15292 8.09507 9.09625 8.14066 9.07194L8.43043 8.91729C8.47602 8.89295 8.5327 8.91021 8.55698 8.95577C8.58131 9.00134 8.56408 9.05802 8.51849 9.08233L8.22872 9.23698C8.2147 9.24448 8.19961 9.24802 8.18476 9.24802L8.18478 9.24804Z" fill="#685417"/>
<path d="M8.18478 8.85494C8.15134 8.85494 8.119 8.83697 8.10217 8.80539C8.07783 8.75983 8.09507 8.70315 8.14066 8.67884L8.43043 8.52421C8.47602 8.4999 8.5327 8.51713 8.55698 8.5627C8.58131 8.60829 8.56408 8.66494 8.51849 8.68927L8.22872 8.84391C8.2147 8.8514 8.19963 8.85494 8.18478 8.85494Z" fill="#685417"/>
<path d="M8.18478 8.46183C8.15134 8.46183 8.119 8.44388 8.10217 8.4123C8.07783 8.36674 8.09507 8.31006 8.14066 8.28575L8.43043 8.13114C8.47602 8.10683 8.5327 8.12406 8.55698 8.16963C8.58131 8.2152 8.56408 8.27187 8.51849 8.29618L8.22872 8.45079C8.2147 8.45827 8.19963 8.46183 8.18478 8.46183Z" fill="#685417"/>
<path d="M8.18478 8.06925C8.15134 8.06925 8.119 8.0513 8.10217 8.01975C8.07783 7.97416 8.09507 7.91751 8.14066 7.89318L8.43043 7.73854C8.47602 7.71428 8.5327 7.73147 8.55698 7.77703C8.58131 7.82262 8.56408 7.87928 8.51849 7.90361L8.22872 8.05824C8.2147 8.06572 8.19961 8.06928 8.18476 8.06928L8.18478 8.06925Z" fill="#685417"/>
<path d="M8.18478 7.66886C8.15134 7.66886 8.119 7.65091 8.10217 7.61933C8.07783 7.57377 8.09507 7.51709 8.14066 7.49278L8.43043 7.33817C8.47602 7.31387 8.5327 7.33109 8.55698 7.37666C8.58131 7.42223 8.56408 7.4789 8.51849 7.50321L8.22872 7.65782C8.2147 7.6653 8.19963 7.66886 8.18478 7.66886Z" fill="#685417"/>
<path d="M8.18478 7.27678C8.15134 7.27678 8.119 7.25883 8.10217 7.22728C8.07783 7.18169 8.09507 7.12504 8.14066 7.10071L8.43043 6.94607C8.47602 6.92179 8.5327 6.939 8.55698 6.98456C8.58131 7.03015 8.56408 7.08681 8.51849 7.11114L8.22872 7.26577C8.2147 7.27325 8.19961 7.27681 8.18476 7.27681L8.18478 7.27678Z" fill="#685417"/>
<path d="M8.18478 6.88373C8.15134 6.88373 8.119 6.86577 8.10217 6.83422C8.07783 6.78863 8.09507 6.73198 8.14066 6.70765L8.43043 6.55302C8.47602 6.52871 8.5327 6.54594 8.55698 6.59151C8.58131 6.6371 8.56408 6.69375 8.51849 6.71808L8.22872 6.87271C8.2147 6.88019 8.19961 6.88375 8.18476 6.88375L8.18478 6.88373Z" fill="#685417"/>
<path d="M8.18478 6.49066C8.15134 6.49066 8.119 6.47271 8.10217 6.44116C8.07783 6.39557 8.09507 6.33892 8.14066 6.31458L8.43043 6.15995C8.47602 6.13564 8.5327 6.15287 8.55698 6.19844C8.58131 6.24403 8.56408 6.30068 8.51849 6.32502L8.22872 6.47965C8.2147 6.48712 8.19961 6.49068 8.18476 6.49068L8.18478 6.49066Z" fill="#685417"/>
<path d="M8.18478 6.0976C8.15134 6.0976 8.119 6.07964 8.10217 6.04809C8.07783 6.0025 8.09507 5.94585 8.14066 5.92152L8.43043 5.76688C8.47602 5.74258 8.5327 5.75981 8.55698 5.80537C8.58131 5.85097 8.56408 5.90762 8.51849 5.93195L8.22872 6.08658C8.2147 6.09406 8.19961 6.09762 8.18476 6.09762L8.18478 6.0976Z" fill="#685417"/>
<path d="M8.18478 5.71234C8.15134 5.71234 8.119 5.69439 8.10217 5.66284C8.07783 5.61725 8.09507 5.5606 8.14066 5.53626L8.43043 5.38163C8.47602 5.35732 8.5327 5.37455 8.55698 5.42012C8.58131 5.46571 8.56408 5.52236 8.51849 5.5467L8.22872 5.70133C8.2147 5.7088 8.19961 5.71237 8.18476 5.71237L8.18478 5.71234Z" fill="#685417"/>
<path d="M8.18478 5.31974C8.15134 5.31974 8.119 5.30179 8.10217 5.27024C8.07783 5.22465 8.09507 5.168 8.14066 5.14366L8.43043 4.98903C8.47602 4.96477 8.5327 4.98195 8.55698 5.02752C8.58131 5.07311 8.56408 5.12976 8.51849 5.1541L8.22872 5.30873C8.2147 5.3162 8.19961 5.31977 8.18476 5.31977L8.18478 5.31974Z" fill="#685417"/>
<path d="M8.18478 4.9267C8.15134 4.9267 8.119 4.90874 8.10217 4.87719C8.07783 4.8316 8.09507 4.77495 8.14066 4.75062L8.43043 4.59599C8.47602 4.57168 8.5327 4.58891 8.55698 4.63448C8.58131 4.68007 8.56408 4.73672 8.51849 4.76105L8.22872 4.91568C8.2147 4.92316 8.19961 4.92672 8.18476 4.92672L8.18478 4.9267Z" fill="#685417"/>
<path d="M8.18478 4.53411C8.15134 4.53411 8.119 4.51616 8.10217 4.4846C8.07783 4.43901 8.09507 4.38236 8.14066 4.35803L8.43043 4.2034C8.47602 4.17911 8.5327 4.19632 8.55698 4.24189C8.58131 4.28748 8.56408 4.34413 8.51849 4.36846L8.22872 4.52309C8.2147 4.53057 8.19961 4.53413 8.18476 4.53413L8.18478 4.53411Z" fill="#685417"/>
<path d="M8.18478 4.14101C8.15134 4.14101 8.119 4.12306 8.10217 4.09148C8.07783 4.04591 8.09507 3.98924 8.14066 3.96493L8.43043 3.81032C8.47602 3.78606 8.5327 3.80324 8.55698 3.84881C8.58131 3.89438 8.56408 3.95105 8.51849 3.97536L8.22872 4.12997C8.2147 4.13744 8.19963 4.14101 8.18478 4.14101Z" fill="#685417"/>
<path d="M8.18478 3.74847C8.15134 3.74847 8.119 3.73052 8.10217 3.69897C8.07783 3.65338 8.09507 3.59673 8.14066 3.5724L8.43043 3.41776C8.47602 3.39345 8.5327 3.41069 8.55698 3.45625C8.58131 3.50184 8.56408 3.5585 8.51849 3.58283L8.22872 3.73746C8.2147 3.74494 8.19961 3.7485 8.18476 3.7485L8.18478 3.74847Z" fill="#685417"/>
<path d="M8.18478 3.35537C8.15134 3.35537 8.119 3.33742 8.10217 3.30585C8.07783 3.26028 8.09507 3.20361 8.14066 3.1793L8.43043 3.02469C8.47602 3.0004 8.5327 3.01761 8.55698 3.06318C8.58131 3.10874 8.56408 3.16542 8.51849 3.18973L8.22872 3.34434C8.2147 3.35181 8.19963 3.35537 8.18478 3.35537Z" fill="#685417"/>
<path d="M8.18478 2.96283C8.15134 2.96283 8.119 2.94488 8.10217 2.91333C8.07783 2.86774 8.09507 2.81108 8.14066 2.78675L8.43043 2.63212C8.47602 2.60781 8.5327 2.62504 8.55698 2.67061C8.58131 2.7162 8.56408 2.77285 8.51849 2.79718L8.22872 2.95182C8.2147 2.95929 8.19961 2.96285 8.18476 2.96285L8.18478 2.96283Z" fill="#685417"/>
<path d="M8.18478 2.56975C8.15134 2.56975 8.119 2.5518 8.10217 2.52025C8.07783 2.47466 8.09507 2.41801 8.14066 2.39368L8.43043 2.23904C8.47602 2.21476 8.5327 2.23196 8.55698 2.27753C8.58131 2.32312 8.56408 2.37977 8.51849 2.40411L8.22872 2.55874C8.2147 2.56621 8.19961 2.56978 8.18476 2.56978L8.18478 2.56975Z" fill="#685417"/>
<path d="M8.18478 2.17719C8.15134 2.17719 8.119 2.15923 8.10217 2.12768C8.07783 2.08209 8.09507 2.02544 8.14066 2.00111L8.43043 1.84647C8.47602 1.82217 8.5327 1.8394 8.55698 1.88496C8.58131 1.93056 8.56408 1.98721 8.51849 2.01154L8.22872 2.16617C8.2147 2.17365 8.19961 2.17721 8.18476 2.17721L8.18478 2.17719Z" fill="#685417"/>
<path d="M8.18478 1.7846C8.15134 1.7846 8.119 1.76664 8.10217 1.73509C8.07783 1.6895 8.09507 1.63285 8.14066 1.60852L8.43043 1.45389C8.47602 1.4296 8.5327 1.44681 8.55698 1.49238C8.58131 1.53797 8.56408 1.59462 8.51849 1.61895L8.22872 1.77358C8.2147 1.78106 8.19961 1.78462 8.18476 1.78462L8.18478 1.7846Z" fill="#685417"/>
<path d="M8.18478 1.3925C8.15134 1.3925 8.119 1.37454 8.10217 1.34299C8.07783 1.2974 8.09507 1.24075 8.14066 1.21642L8.43043 1.06179C8.47602 1.03752 8.5327 1.05471 8.55698 1.10028C8.58131 1.14587 8.56408 1.20252 8.51849 1.22685L8.22872 1.38148C8.2147 1.38896 8.19961 1.39252 8.18476 1.39252L8.18478 1.3925Z" fill="#685417"/>
<path d="M8.18478 0.99945C8.15134 0.99945 8.119 0.981498 8.10217 0.949948C8.07783 0.904357 8.09507 0.847705 8.14066 0.823373L8.43043 0.66874C8.47602 0.644431 8.5327 0.661662 8.55698 0.707229C8.58131 0.752821 8.56408 0.809472 8.51849 0.833804L8.22872 0.988437C8.2147 0.995911 8.19961 0.999474 8.18476 0.999474L8.18478 0.99945Z" fill="#685417"/>
<path d="M8.18478 0.606374C8.15134 0.606374 8.119 0.588422 8.10217 0.556871C8.07783 0.51128 8.09507 0.454628 8.14066 0.430296L8.43043 0.275664C8.47602 0.251378 8.5327 0.268585 8.55698 0.314153C8.58131 0.359744 8.56408 0.416395 8.51849 0.440728L8.22872 0.59536C8.2147 0.602834 8.19961 0.606397 8.18476 0.606397L8.18478 0.606374Z" fill="#685417"/>
<path d="M6.11172 0.160306C6.09488 0.191833 6.06254 0.209739 6.02913 0.209739C6.01416 0.209739 5.99918 0.20627 5.98503 0.198772L5.83081 0.116461C5.92355 0.0996264 6.01709 0.0843983 6.11118 0.0712891C6.12587 0.0980197 6.12722 0.131433 6.11172 0.160282V0.160306Z" fill="#685417"/>
<path d="M8.38307 0.116438L8.22886 0.198749C8.21496 0.206223 8.19973 0.209715 8.18504 0.209715C8.15137 0.209715 8.11903 0.19181 8.10219 0.160282C8.08669 0.13141 8.08804 0.0979964 8.10273 0.0712891C8.1968 0.084375 8.29036 0.099347 8.3831 0.116461L8.38307 0.116438Z" fill="#685417"/>
<path d="M8.69516 13.9604C8.66172 13.9604 8.62938 13.9424 8.61254 13.9108C8.58821 13.8653 8.60544 13.8086 8.65103 13.7843L8.94081 13.6297C8.9864 13.6054 9.04307 13.6226 9.06736 13.6682C9.09169 13.7137 9.07446 13.7704 9.02887 13.7947L8.73909 13.9493C8.72508 13.9568 8.70999 13.9604 8.69513 13.9604L8.69516 13.9604Z" fill="#685417"/>
<path d="M8.69516 13.5683C8.66172 13.5683 8.62938 13.5503 8.61254 13.5188C8.58821 13.4732 8.60544 13.4165 8.65103 13.3922L8.94081 13.2376C8.9864 13.2133 9.04307 13.2305 9.06736 13.2761C9.09169 13.3217 9.07446 13.3783 9.02887 13.4026L8.73909 13.5572C8.72508 13.5647 8.70999 13.5683 8.69513 13.5683L8.69516 13.5683Z" fill="#685417"/>
<path d="M5.9874 14.1318C5.87488 14.1139 5.76342 14.0935 5.65277 14.0703C5.65384 14.0674 5.65517 14.0641 5.65678 14.0612C5.68108 14.0158 5.73776 13.9984 5.78319 14.0227L5.98737 14.1318H5.9874Z" fill="#685417"/>
<path d="M8.5646 14.0703C8.45395 14.0936 8.34249 14.1139 8.22998 14.1318L8.43416 14.0227C8.47959 13.9984 8.53627 14.0158 8.56057 14.0612C8.56218 14.0641 8.56353 14.0674 8.5646 14.0703Z" fill="#685417"/>
<path d="M8.69516 13.1689C8.66172 13.1689 8.62938 13.151 8.61254 13.1194C8.58821 13.0738 8.60544 13.0171 8.65103 12.9928L8.94081 12.8382C8.9864 12.8139 9.04307 12.8311 9.06736 12.8767C9.09169 12.9222 9.07446 12.9789 9.02887 13.0032L8.73909 13.1579C8.72508 13.1654 8.70999 13.1689 8.69513 13.1689L8.69516 13.1689Z" fill="#685417"/>
<path d="M8.69516 12.7822C8.66172 12.7822 8.62938 12.7643 8.61254 12.7327C8.58821 12.6871 8.60544 12.6304 8.65103 12.6061L8.94081 12.4515C8.9864 12.4271 9.04307 12.4444 9.06736 12.49C9.09169 12.5355 9.07446 12.5922 9.02887 12.6165L8.73909 12.7712C8.72508 12.7787 8.70999 12.7822 8.69513 12.7822L8.69516 12.7822Z" fill="#685417"/>
<path d="M8.69516 12.3891C8.66172 12.3891 8.62938 12.3711 8.61254 12.3396C8.58821 12.294 8.60544 12.2373 8.65103 12.213L8.94081 12.0584C8.9864 12.0341 9.04307 12.0513 9.06736 12.0969C9.09169 12.1424 9.07446 12.1991 9.02887 12.2234L8.73909 12.378C8.72508 12.3855 8.70999 12.3891 8.69513 12.3891L8.69516 12.3891Z" fill="#685417"/>
<path d="M8.69516 11.997C8.66172 11.997 8.62938 11.979 8.61254 11.9475C8.58821 11.9019 8.60544 11.8452 8.65103 11.8209L8.94081 11.6663C8.9864 11.642 9.04307 11.6592 9.06736 11.7048C9.09169 11.7504 9.07446 11.807 9.02887 11.8314L8.73909 11.986C8.72508 11.9935 8.70999 11.997 8.69513 11.997L8.69516 11.997Z" fill="#685417"/>
<path d="M8.69516 11.604C8.66172 11.604 8.62938 11.586 8.61254 11.5544C8.58821 11.5088 8.60544 11.4522 8.65103 11.4279L8.94081 11.2732C8.9864 11.2489 9.04307 11.2662 9.06736 11.3117C9.09169 11.3573 9.07446 11.414 9.02887 11.4383L8.73909 11.5929C8.72508 11.6004 8.70999 11.6039 8.69513 11.6039L8.69516 11.604Z" fill="#685417"/>
<path d="M8.69516 11.2109C8.66172 11.2109 8.62938 11.193 8.61254 11.1614C8.58821 11.1158 8.60544 11.0591 8.65103 11.0348L8.94081 10.8802C8.9864 10.8558 9.04307 10.8731 9.06736 10.9187C9.09169 10.9642 9.07446 11.0209 9.02887 11.0452L8.73909 11.1999C8.72508 11.2074 8.70999 11.2109 8.69513 11.2109L8.69516 11.2109Z" fill="#685417"/>
<path d="M8.69516 10.8189C8.66172 10.8189 8.62938 10.8009 8.61254 10.7693C8.58821 10.7237 8.60544 10.6671 8.65103 10.6428L8.94081 10.4881C8.9864 10.4637 9.04307 10.481 9.06736 10.5266C9.09169 10.5722 9.07446 10.6288 9.02887 10.6531L8.73909 10.8078C8.72508 10.8153 8.70999 10.8188 8.69513 10.8188L8.69516 10.8189Z" fill="#685417"/>
<path d="M8.69516 10.4262C8.66172 10.4262 8.62938 10.4083 8.61254 10.3767C8.58821 10.3311 8.60544 10.2744 8.65103 10.2501L8.94081 10.0955C8.9864 10.0712 9.04307 10.0884 9.06736 10.134C9.09169 10.1796 9.07446 10.2363 9.02887 10.2606L8.73909 10.4152C8.72508 10.4227 8.70999 10.4262 8.69513 10.4262L8.69516 10.4262Z" fill="#685417"/>
<path d="M8.69516 10.0331C8.66172 10.0331 8.62938 10.0152 8.61254 9.9836C8.58821 9.93803 8.60544 9.88136 8.65103 9.85705L8.94081 9.70244C8.9864 9.67811 9.04307 9.69538 9.06736 9.74093C9.09169 9.78649 9.07446 9.84317 9.02887 9.86748L8.73909 10.0221C8.72508 10.0296 8.70999 10.0331 8.69513 10.0331L8.69516 10.0331Z" fill="#685417"/>
<path d="M8.69516 9.64063C8.66172 9.64063 8.62938 9.62266 8.61254 9.59108C8.58821 9.54551 8.60544 9.48884 8.65103 9.46453L8.94081 9.30987C8.9864 9.28552 9.04307 9.3028 9.06736 9.34836C9.09169 9.39393 9.07446 9.45061 9.02887 9.47492L8.73909 9.62957C8.72508 9.63707 8.70999 9.64061 8.69513 9.64061L8.69516 9.64063Z" fill="#685417"/>
<path d="M8.69516 9.24804C8.66172 9.24804 8.62938 9.23007 8.61254 9.19849C8.58821 9.15292 8.60544 9.09625 8.65103 9.07194L8.94081 8.91729C8.9864 8.89295 9.04307 8.91021 9.06736 8.95577C9.09169 9.00134 9.07446 9.05802 9.02887 9.08233L8.73909 9.23698C8.72508 9.24448 8.70999 9.24802 8.69513 9.24802L8.69516 9.24804Z" fill="#685417"/>
<path d="M8.69516 8.85494C8.66172 8.85494 8.62938 8.83697 8.61254 8.80539C8.58821 8.75983 8.60544 8.70315 8.65103 8.67884L8.94081 8.52421C8.9864 8.4999 9.04307 8.51713 9.06736 8.5627C9.09169 8.60829 9.07446 8.66494 9.02887 8.68927L8.73909 8.84391C8.72508 8.8514 8.70999 8.85494 8.69513 8.85494H8.69516Z" fill="#685417"/>
<path d="M8.69516 8.46183C8.66172 8.46183 8.62938 8.44388 8.61254 8.4123C8.58821 8.36674 8.60544 8.31006 8.65103 8.28575L8.94081 8.13114C8.9864 8.10683 9.04307 8.12406 9.06736 8.16963C9.09169 8.2152 9.07446 8.27187 9.02887 8.29618L8.73909 8.45079C8.72508 8.45827 8.70999 8.46183 8.69513 8.46183H8.69516Z" fill="#685417"/>
<path d="M8.69516 8.06925C8.66172 8.06925 8.62938 8.0513 8.61254 8.01975C8.58821 7.97416 8.60544 7.91751 8.65103 7.89318L8.94081 7.73854C8.9864 7.71428 9.04307 7.73147 9.06736 7.77703C9.09169 7.82262 9.07446 7.87928 9.02887 7.90361L8.73909 8.05824C8.72508 8.06572 8.70999 8.06928 8.69513 8.06928L8.69516 8.06925Z" fill="#685417"/>
<path d="M8.69516 7.66886C8.66172 7.66886 8.62938 7.65091 8.61254 7.61933C8.58821 7.57377 8.60544 7.51709 8.65103 7.49278L8.94081 7.33817C8.9864 7.31387 9.04307 7.33109 9.06736 7.37666C9.09169 7.42223 9.07446 7.4789 9.02887 7.50321L8.73909 7.65782C8.72508 7.6653 8.70999 7.66886 8.69513 7.66886H8.69516Z" fill="#685417"/>
<path d="M8.69516 7.27678C8.66172 7.27678 8.62938 7.25883 8.61254 7.22728C8.58821 7.18169 8.60544 7.12504 8.65103 7.10071L8.94081 6.94607C8.9864 6.92179 9.04307 6.939 9.06736 6.98456C9.09169 7.03015 9.07446 7.08681 9.02887 7.11114L8.73909 7.26577C8.72508 7.27325 8.70999 7.27681 8.69513 7.27681L8.69516 7.27678Z" fill="#685417"/>
<path d="M8.69516 6.88373C8.66172 6.88373 8.62938 6.86577 8.61254 6.83422C8.58821 6.78863 8.60544 6.73198 8.65103 6.70765L8.94081 6.55302C8.9864 6.52871 9.04307 6.54594 9.06736 6.59151C9.09169 6.6371 9.07446 6.69375 9.02887 6.71808L8.73909 6.87271C8.72508 6.88019 8.70999 6.88375 8.69513 6.88375L8.69516 6.88373Z" fill="#685417"/>
<path d="M8.69516 6.49066C8.66172 6.49066 8.62938 6.47271 8.61254 6.44116C8.58821 6.39557 8.60544 6.33892 8.65103 6.31458L8.94081 6.15995C8.9864 6.13564 9.04307 6.15287 9.06736 6.19844C9.09169 6.24403 9.07446 6.30068 9.02887 6.32502L8.73909 6.47965C8.72508 6.48712 8.70999 6.49068 8.69513 6.49068L8.69516 6.49066Z" fill="#685417"/>
<path d="M8.69516 6.0976C8.66172 6.0976 8.62938 6.07964 8.61254 6.04809C8.58821 6.0025 8.60544 5.94585 8.65103 5.92152L8.94081 5.76688C8.9864 5.74258 9.04307 5.75981 9.06736 5.80537C9.09169 5.85097 9.07446 5.90762 9.02887 5.93195L8.73909 6.08658C8.72508 6.09406 8.70999 6.09762 8.69513 6.09762L8.69516 6.0976Z" fill="#685417"/>
<path d="M8.69516 5.71234C8.66172 5.71234 8.62938 5.69439 8.61254 5.66284C8.58821 5.61725 8.60544 5.5606 8.65103 5.53626L8.94081 5.38163C8.9864 5.35732 9.04307 5.37455 9.06736 5.42012C9.09169 5.46571 9.07446 5.52236 9.02887 5.5467L8.73909 5.70133C8.72508 5.7088 8.70999 5.71237 8.69513 5.71237L8.69516 5.71234Z" fill="#685417"/>
<path d="M8.69516 5.31974C8.66172 5.31974 8.62938 5.30179 8.61254 5.27024C8.58821 5.22465 8.60544 5.168 8.65103 5.14366L8.94081 4.98903C8.9864 4.96477 9.04307 4.98195 9.06736 5.02752C9.09169 5.07311 9.07446 5.12976 9.02887 5.1541L8.73909 5.30873C8.72508 5.3162 8.70999 5.31977 8.69513 5.31977L8.69516 5.31974Z" fill="#685417"/>
<path d="M8.69516 4.9267C8.66172 4.9267 8.62938 4.90874 8.61254 4.87719C8.58821 4.8316 8.60544 4.77495 8.65103 4.75062L8.94081 4.59599C8.9864 4.57168 9.04307 4.58891 9.06736 4.63448C9.09169 4.68007 9.07446 4.73672 9.02887 4.76105L8.73909 4.91568C8.72508 4.92316 8.70999 4.92672 8.69513 4.92672L8.69516 4.9267Z" fill="#685417"/>
<path d="M8.69516 4.53411C8.66172 4.53411 8.62938 4.51616 8.61254 4.4846C8.58821 4.43901 8.60544 4.38236 8.65103 4.35803L8.94081 4.2034C8.9864 4.17911 9.04307 4.19632 9.06736 4.24189C9.09169 4.28748 9.07446 4.34413 9.02887 4.36846L8.73909 4.52309C8.72508 4.53057 8.70999 4.53413 8.69513 4.53413L8.69516 4.53411Z" fill="#685417"/>
<path d="M8.69516 4.14101C8.66172 4.14101 8.62938 4.12306 8.61254 4.09148C8.58821 4.04591 8.60544 3.98924 8.65103 3.96493L8.94081 3.81032C8.9864 3.78606 9.04307 3.80324 9.06736 3.84881C9.09169 3.89438 9.07446 3.95105 9.02887 3.97536L8.73909 4.12997C8.72508 4.13744 8.70999 4.14101 8.69513 4.14101H8.69516Z" fill="#685417"/>
<path d="M8.69516 3.74847C8.66172 3.74847 8.62938 3.73052 8.61254 3.69897C8.58821 3.65338 8.60544 3.59673 8.65103 3.5724L8.94081 3.41776C8.9864 3.39345 9.04307 3.41069 9.06736 3.45625C9.09169 3.50184 9.07446 3.5585 9.02887 3.58283L8.73909 3.73746C8.72508 3.74494 8.70999 3.7485 8.69513 3.7485L8.69516 3.74847Z" fill="#685417"/>
<path d="M8.69516 3.35537C8.66172 3.35537 8.62938 3.33742 8.61254 3.30585C8.58821 3.26028 8.60544 3.20361 8.65103 3.1793L8.94081 3.02469C8.9864 3.0004 9.04307 3.01761 9.06736 3.06318C9.09169 3.10874 9.07446 3.16542 9.02887 3.18973L8.73909 3.34434C8.72508 3.35181 8.70999 3.35537 8.69513 3.35537H8.69516Z" fill="#685417"/>
<path d="M8.69516 2.96283C8.66172 2.96283 8.62938 2.94488 8.61254 2.91333C8.58821 2.86774 8.60544 2.81108 8.65103 2.78675L8.94081 2.63212C8.9864 2.60781 9.04307 2.62504 9.06736 2.67061C9.09169 2.7162 9.07446 2.77285 9.02887 2.79718L8.73909 2.95182C8.72508 2.95929 8.70999 2.96285 8.69513 2.96285L8.69516 2.96283Z" fill="#685417"/>
<path d="M8.69516 2.56975C8.66172 2.56975 8.62938 2.5518 8.61254 2.52025C8.58821 2.47466 8.60544 2.41801 8.65103 2.39368L8.94081 2.23904C8.9864 2.21476 9.04307 2.23196 9.06736 2.27753C9.09169 2.32312 9.07446 2.37977 9.02887 2.40411L8.73909 2.55874C8.72508 2.56621 8.70999 2.56978 8.69513 2.56978L8.69516 2.56975Z" fill="#685417"/>
<path d="M8.69516 2.17719C8.66172 2.17719 8.62938 2.15923 8.61254 2.12768C8.58821 2.08209 8.60544 2.02544 8.65103 2.00111L8.94081 1.84647C8.9864 1.82217 9.04307 1.8394 9.06736 1.88496C9.09169 1.93056 9.07446 1.98721 9.02887 2.01154L8.73909 2.16617C8.72508 2.17365 8.70999 2.17721 8.69513 2.17721L8.69516 2.17719Z" fill="#685417"/>
<path d="M8.69516 1.7846C8.66172 1.7846 8.62938 1.76664 8.61254 1.73509C8.58821 1.6895 8.60544 1.63285 8.65103 1.60852L8.94081 1.45389C8.9864 1.4296 9.04307 1.44681 9.06736 1.49238C9.09169 1.53797 9.07446 1.59462 9.02887 1.61895L8.73909 1.77358C8.72508 1.78106 8.70999 1.78462 8.69513 1.78462L8.69516 1.7846Z" fill="#685417"/>
<path d="M8.69516 1.3925C8.66172 1.3925 8.62938 1.37454 8.61254 1.34299C8.58821 1.2974 8.60544 1.24075 8.65103 1.21642L8.94081 1.06179C8.9864 1.03752 9.04307 1.05471 9.06736 1.10028C9.09169 1.14587 9.07446 1.20252 9.02887 1.22685L8.73909 1.38148C8.72508 1.38896 8.70999 1.39252 8.69513 1.39252L8.69516 1.3925Z" fill="#685417"/>
<path d="M8.69516 0.99945C8.66172 0.99945 8.62938 0.981498 8.61254 0.949948C8.58821 0.904357 8.60544 0.847705 8.65103 0.823373L8.94081 0.66874C8.9864 0.644431 9.04307 0.661662 9.06736 0.707229C9.09169 0.752821 9.07446 0.809472 9.02887 0.833804L8.73909 0.988437C8.72508 0.995911 8.70999 0.999474 8.69513 0.999474L8.69516 0.99945Z" fill="#685417"/>
<path d="M8.69516 0.606374C8.66172 0.606374 8.62938 0.588422 8.61254 0.556871C8.58821 0.51128 8.60544 0.454628 8.65103 0.430296L8.94081 0.275664C8.9864 0.251378 9.04307 0.268585 9.06736 0.314153C9.09169 0.359744 9.07446 0.416395 9.02887 0.440728L8.73909 0.59536C8.72508 0.602834 8.70999 0.606397 8.69513 0.606397L8.69516 0.606374Z" fill="#685417"/>
<path opacity="0.14" d="M14.2132 7.10672C14.2132 10.5326 11.789 13.3927 8.5623 14.064C8.45165 14.0873 8.34019 14.1076 8.22768 14.1255H8.22742C8.02911 14.157 7.82865 14.1801 7.62526 14.1947C7.56297 14.1993 7.50071 14.203 7.43817 14.2057C7.35933 14.2095 7.27995 14.2119 7.20029 14.2129C7.16902 14.2132 7.13803 14.2135 7.10676 14.2135C7.07549 14.2135 7.0445 14.2132 7.01323 14.2129C6.93357 14.2119 6.85419 14.2095 6.77509 14.2057C6.71255 14.203 6.65001 14.1993 6.588 14.1945C6.38461 14.1801 6.18416 14.1571 5.98584 14.1255H5.98559C5.87308 14.1076 5.76161 14.0873 5.65096 14.0641C2.42422 13.3924 6.10352e-05 10.5326 6.10352e-05 7.10674C6.10352e-05 7.03004 0.0013885 6.95332 0.0038101 6.87716C0.104842 9.98793 2.3403 12.5588 5.2931 13.1735C5.39681 13.1954 5.50131 13.2144 5.60661 13.2313H5.60686C5.7926 13.2607 5.98051 13.2823 6.17081 13.2957C6.22907 13.3002 6.28761 13.3037 6.34615 13.3063C6.42019 13.3098 6.49449 13.312 6.56933 13.313C6.59846 13.3133 6.62759 13.3136 6.65672 13.3136C6.6861 13.3136 6.71525 13.3133 6.74438 13.313C6.81894 13.312 6.89352 13.3098 6.96729 13.3063C7.02582 13.3037 7.08408 13.3002 7.14262 13.2959C7.33292 13.2823 7.52081 13.2606 7.70657 13.2312H7.70683C7.81214 13.2144 7.91664 13.1954 8.02033 13.1735C11.0426 12.5446 13.3133 9.86578 13.3133 6.65665C13.3133 3.389 10.9587 0.670851 7.85354 0.107459C7.76667 0.0914156 7.67902 0.077258 7.59082 0.0652199C7.44301 0.0443802 7.29334 0.0283372 7.14262 0.0176496C7.08408 0.0133652 7.02582 0.00989587 6.96729 0.00721815C6.9379 0.00589093 6.90821 0.00454074 6.87855 0.00374906C6.92318 0.00214243 6.96836 0.00107133 7.01325 0.000535783C7.04452 0.000279653 7.07551 0 7.10678 0C7.13805 0 7.16904 0.000256369 7.20032 0.000535783C7.27997 0.00160687 7.35935 0.00400512 7.43819 0.00775393C7.50073 0.0104317 7.563 0.0141574 7.62528 0.0187211C7.78646 0.0302237 7.94601 0.0473146 8.10397 0.0695047C8.19804 0.0825906 8.29159 0.0975626 8.38434 0.114677C11.6996 0.716303 14.2132 3.61807 14.2132 7.10674L14.2132 7.10672Z" fill="#492A2F"/>
<path opacity="0.16" d="M6.46364 2.23241C6.38741 2.37086 6.28624 2.49204 6.17545 2.60508C6.0461 2.73706 5.90072 2.85211 5.74608 2.95333C5.3265 3.22797 4.2551 3.98879 3.28072 5.17532C3.05795 5.44659 2.3165 5.74076 1.69164 5.19258C1.46776 4.99619 1.15484 4.39452 1.87861 3.32313C2.3219 2.66695 3.21706 1.85565 3.94542 1.44253C4.54933 1.09999 5.08243 0.910875 5.63858 0.989298C5.64179 0.98974 5.645 0.990205 5.64819 0.990671C5.98521 1.03878 6.35486 1.15425 6.51389 1.4552C6.6403 1.6944 6.59408 1.99535 6.46364 2.23241Z" fill="white"/>
<path opacity="0.16" d="M2.47455 7.14103C2.47534 7.41658 2.40479 7.70898 2.20222 7.89554C1.97771 8.10294 1.61796 8.13234 1.34856 7.98882C1.07888 7.84557 0.905962 7.54888 0.884308 7.2442C0.862118 6.93952 0.98774 6.63857 1.18205 6.40309C1.1922 6.39054 1.20263 6.37876 1.21357 6.367C1.63854 5.90837 2.41096 6.19863 2.458 6.82242C2.46761 6.94777 2.47429 7.06323 2.47457 7.141L2.47455 7.14103Z" fill="white"/>
</svg>
