<svg width="1559" height="310" viewBox="0 0 1559 310" fill="none" xmlns="http://www.w3.org/2000/svg">
<path d="M466.871 240.301C466.546 242.254 466.382 244.154 466.382 245.997C466.382 258.477 473.543 264.715 487.866 264.715H561.108L556.551 297.267H483.308C449.996 297.267 433.343 282.674 433.343 253.485C433.343 249.362 433.668 244.967 434.319 240.301L450.431 126.369C455.746 88.3912 477.395 69.4019 515.374 69.4019H588.616L584.059 101.954H510.816C494.54 101.954 485.262 110.093 482.983 126.369L466.871 240.301Z" fill="white"/>
<path d="M621.655 297.267H589.103L612.054 134.507H639.723L642.163 150.783C654.639 139.933 669.019 134.507 685.295 134.507H693.434L688.712 167.059H680.574C664.298 167.059 650.355 169.772 638.746 175.196L621.655 297.267Z" fill="white"/>
<path d="M759.513 69.402L754.956 101.954H722.404L726.961 69.402H759.513ZM750.398 134.506L727.449 297.266H694.897L717.846 134.506H750.398Z" fill="white"/>
<path d="M800.529 240.301C800.203 242.254 800.041 244.154 800.041 245.997C800.041 258.477 807.202 264.715 821.525 264.715H886.629L882.071 297.267H816.967C783.655 297.267 767.001 282.674 767.001 253.485C767.001 249.362 767.326 244.967 767.977 240.301L774.813 191.473C780.237 153.495 801.938 134.506 839.917 134.506H905.021L900.301 167.058H835.197C818.921 167.058 809.643 175.197 807.365 191.473L800.529 240.301Z" fill="white"/>
<path d="M979.404 69.402L959.873 207.749L1028.88 134.506H1067.94L992.913 215.886L1045 297.266H1005.93L957.594 224.025L947.34 297.266H914.788L946.852 69.402H979.404Z" fill="white"/>
<path d="M1129.47 101.954L1120.19 167.058H1177.16C1193.43 167.058 1202.76 158.921 1205.15 142.645L1207.43 126.369C1207.76 124.415 1207.92 122.518 1207.92 120.671C1207.92 108.195 1200.76 101.954 1186.44 101.954H1129.47ZM1159.25 199.61H1115.63L1101.96 297.266H1069.41L1101.47 69.4021H1190.99C1224.3 69.4021 1240.96 83.9968 1240.96 113.185C1240.96 117.31 1240.63 121.705 1239.98 126.369L1237.7 142.645C1232.82 176.823 1217.47 195.597 1191.64 198.959L1215.89 297.266H1183.34L1159.25 199.61Z" fill="white"/>
<path d="M1287.83 248.439C1287.62 249.741 1287.51 250.989 1287.51 252.183C1287.51 260.539 1292.28 264.715 1301.83 264.715H1334.38C1345.23 264.715 1351.42 259.291 1352.94 248.439L1362.05 183.335C1362.16 182.251 1362.22 181.165 1362.22 180.079C1362.22 172.485 1357.44 168.687 1347.89 168.687H1315.34C1304.49 168.687 1298.36 173.569 1296.95 183.335L1287.83 248.439ZM1385.49 248.439C1380.93 280.991 1362.38 297.267 1329.83 297.267H1297.27C1268.74 297.267 1254.47 284.735 1254.47 259.669C1254.47 256.197 1254.74 252.455 1255.28 248.439L1264.4 183.335C1269.06 150.783 1287.67 134.507 1320.22 134.507H1352.78C1381.2 134.507 1395.42 146.985 1395.42 171.941C1395.42 175.415 1395.15 179.212 1394.61 183.335L1385.49 248.439Z" fill="white"/>
<path d="M1558.19 171.945C1558.19 175.412 1557.91 179.212 1557.37 183.332L1555.79 194.638C1551.17 195.358 1546.13 196.158 1540.75 197.038C1531.25 198.585 1525.85 199.532 1522.47 200.158L1524.81 183.332C1524.92 182.252 1524.97 181.158 1524.97 180.078C1524.97 172.492 1520.2 168.692 1510.65 168.692H1478.11C1467.25 168.692 1461.12 173.572 1459.71 183.332L1456.28 207.838C1454.31 208.385 1452.76 208.865 1451.76 209.185C1441.51 212.532 1434.56 216.612 1432.47 217.772C1429.77 219.252 1426.31 220.705 1421.77 221.825L1427.16 183.332C1431.83 150.785 1450.44 134.505 1482.99 134.505H1515.53C1543.96 134.505 1558.19 146.985 1558.19 171.945Z" fill="white"/>
<path d="M231.883 18.2747C212.712 30.42 196.693 46.9493 182.239 64.4467C132.224 124.995 98.8213 198.992 87.8467 276.827C86.284 287.903 83.208 298.375 81.796 309.6C92.5547 263.268 108.209 216.675 129.623 174.143C144.703 144.187 164.273 116.009 190.185 94.7173C205.551 82.0906 225.488 71.6267 244.699 76.7773C257.128 80.1107 266.721 89.4667 273.265 100.204C280.713 112.429 284.012 128.293 286.828 142.284C293.019 173.031 292.935 205.193 290.525 236.357C289.044 255.54 286.511 274.624 283.543 293.627H372.919C384.327 245.805 389.881 197.256 388.249 148.013C387.159 115.144 382.784 81.456 366.983 52.612C355.065 30.8573 335.648 12.1227 311.98 3.85065C304.365 1.18799 296.52 0 288.661 0C268.703 -0.00134277 248.64 7.65866 231.883 18.2747Z" fill="url(#paint0_linear_2_15)"/>
<path d="M110.907 94.3213C96.3107 103.568 87.2813 112.756 74.2213 128.441C52.8773 154.077 40.6666 177.307 36.3426 185.867C13.1253 231.836 3.896 277.539 0 309.599C7.948 275.363 19.5173 240.931 35.3413 209.501C46.484 187.367 60.9467 166.544 80.0933 150.811C91.4493 141.48 106.181 133.747 120.377 137.553C129.563 140.016 136.652 146.929 141.487 154.864C146.991 163.897 149.428 175.621 151.511 185.959C156.085 208.68 156.023 232.448 154.243 255.476C153.147 269.651 151.275 283.753 149.081 297.796H215.127C223.557 262.457 227.664 226.581 226.456 190.193C225.649 165.904 222.417 141.009 210.741 119.696C201.935 103.619 187.585 89.776 170.096 83.6627C164.468 81.6947 158.672 80.8173 152.865 80.8173C138.116 80.816 123.291 86.4773 110.907 94.3213Z" fill="url(#paint1_linear_2_15)"/>
<path d="M1537.41 210.279C1535.72 211.252 1531.57 213.785 1525.37 216.692C1525.37 216.692 1523.12 217.745 1519.8 219.131L1515.71 248.439C1514.17 259.292 1508 264.719 1497.15 264.719H1464.6C1455.04 264.719 1450.27 260.545 1450.27 252.185C1450.27 250.985 1450.37 249.745 1450.6 248.439L1453.61 226.905C1440.72 228.519 1432.64 230.879 1429.43 231.879C1425.95 232.959 1422.76 234.105 1419.89 235.252L1418.04 248.439C1417.51 252.452 1417.23 256.199 1417.23 259.665C1417.23 284.732 1431.49 297.265 1460.04 297.265H1492.59C1525.15 297.265 1543.69 280.985 1548.25 248.439L1554.47 204.119C1546.75 205.704 1541.32 208.025 1537.41 210.279Z" fill="url(#paint2_linear_2_15)"/>
<defs>
<linearGradient id="paint0_linear_2_15" x1="256.832" y1="-3.95742" x2="231.116" y2="295.552" gradientUnits="userSpaceOnUse">
<stop stop-color="#FFDDC6"/>
<stop offset="0.228429" stop-color="#FFDDC6"/>
<stop offset="0.855825" stop-color="#FF6700"/>
<stop offset="1" stop-color="#FF6700"/>
</linearGradient>
<linearGradient id="paint1_linear_2_15" x1="137.253" y1="-14.2243" x2="111.537" y2="285.285" gradientUnits="userSpaceOnUse">
<stop stop-color="#FFDDC6"/>
<stop offset="0.491556" stop-color="#FFDDC6"/>
<stop offset="0.855825" stop-color="#FF6700"/>
<stop offset="1" stop-color="#FF6700"/>
</linearGradient>
<linearGradient id="paint2_linear_2_15" x1="1486.22" y1="224.817" x2="1480.97" y2="307.384" gradientUnits="userSpaceOnUse">
<stop stop-color="#FFC095"/>
<stop offset="0.331542" stop-color="#FFC095"/>
<stop offset="1" stop-color="#FF6700"/>
</linearGradient>
</defs>
</svg>
