<svg width="799" height="636" viewBox="0 0 799 636" fill="none" xmlns="http://www.w3.org/2000/svg">
<path d="M476.348 37.541C436.967 62.4907 404.06 96.4464 374.366 132.391C271.623 256.772 203.005 408.782 180.46 568.675C177.25 591.428 170.931 612.94 168.031 636C190.132 540.822 222.29 445.107 266.279 357.735C297.257 296.197 337.461 238.314 390.691 194.574C422.255 168.636 463.212 147.14 502.676 157.721C528.209 164.568 547.916 183.788 561.359 205.845C576.659 230.96 583.436 263.548 589.22 292.289C601.938 355.451 601.765 421.521 596.816 485.54C593.773 524.947 588.568 564.15 582.471 603.187H766.073C789.508 504.949 800.919 405.216 797.566 304.058C795.326 236.536 786.339 167.332 753.879 108.079C729.398 63.3891 689.51 24.9032 640.889 7.91034C625.247 2.44049 609.13 0 592.987 0C551.986 -0.00268555 510.772 15.7329 476.348 37.541Z" fill="url(#paint0_linear_2_40)"/>
<path d="M227.832 193.761C197.847 212.756 179.299 231.631 152.47 263.852C108.624 316.516 83.54 364.235 74.6574 381.819C26.9629 476.252 8.00341 570.138 0 635.997C16.3273 565.668 40.0937 494.935 72.6004 430.371C95.4903 384.901 125.201 342.125 164.533 309.805C187.861 290.637 218.124 274.751 247.287 282.571C266.156 287.63 280.719 301.832 290.651 318.132C301.958 336.688 306.965 360.773 311.243 382.008C320.64 428.684 320.512 477.51 316.855 524.815C314.604 553.934 310.758 582.904 306.252 611.752H441.927C459.246 539.157 467.682 465.458 465.2 390.707C463.543 340.811 456.904 289.67 432.918 245.887C414.827 212.86 385.35 184.424 349.422 171.865C337.861 167.822 325.954 166.02 314.026 166.02C283.727 166.017 253.272 177.647 227.832 193.761Z" fill="url(#paint1_linear_2_40)"/>
<defs>
<linearGradient id="paint0_linear_2_40" x1="527.6" y1="-8.12959" x2="474.774" y2="607.142" gradientUnits="userSpaceOnUse">
<stop stop-color="#FFDDC6"/>
<stop offset="0.228429" stop-color="#FFDDC6"/>
<stop offset="0.855825" stop-color="#FF6700"/>
<stop offset="1" stop-color="#FF6700"/>
</linearGradient>
<linearGradient id="paint1_linear_2_40" x1="281.953" y1="-29.2205" x2="229.127" y2="586.051" gradientUnits="userSpaceOnUse">
<stop stop-color="#FFDDC6"/>
<stop offset="0.491556" stop-color="#FFDDC6"/>
<stop offset="0.855825" stop-color="#FF6700"/>
<stop offset="1" stop-color="#FF6700"/>
</linearGradient>
</defs>
</svg>
