<svg width="1024" height="1024" viewBox="0 0 1024 1024" fill="none" xmlns="http://www.w3.org/2000/svg">
<rect width="1024" height="1024" fill="white"/>
<path d="M589.348 231.541C549.967 256.491 517.06 290.446 487.366 326.391C384.623 450.772 316.005 602.782 293.46 762.675C290.25 785.428 283.931 806.94 281.031 830C303.132 734.822 335.29 639.107 379.279 551.735C410.257 490.197 450.461 432.314 503.691 388.574C535.255 362.636 576.212 341.14 615.676 351.721C641.209 358.568 660.916 377.788 674.359 399.845C689.659 424.96 696.436 457.548 702.22 486.289C714.938 549.451 714.765 615.521 709.816 679.54C706.773 718.947 701.568 758.15 695.471 797.187H879.073C902.508 698.949 913.919 599.216 910.566 498.058C908.326 430.536 899.339 361.332 866.879 302.079C842.398 257.389 802.51 218.903 753.889 201.91C738.247 196.44 722.13 194 705.987 194C664.986 193.997 623.772 209.733 589.348 231.541Z" fill="url(#paint0_linear_5_3)"/>
<path d="M340.832 387.761C310.847 406.756 292.299 425.631 265.47 457.852C221.624 510.516 196.54 558.235 187.657 575.819C139.963 670.252 121.003 764.138 113 829.997C129.327 759.668 153.094 688.935 185.6 624.371C208.49 578.901 238.201 536.125 277.533 503.805C300.861 484.637 331.124 468.751 360.287 476.571C379.156 481.63 393.719 495.832 403.651 512.132C414.958 530.688 419.965 554.773 424.243 576.008C433.64 622.684 433.512 671.51 429.855 718.815C427.604 747.934 423.758 776.904 419.252 805.752H554.927C572.246 733.157 580.682 659.458 578.2 584.707C576.543 534.811 569.904 483.67 545.918 439.887C527.827 406.86 498.35 378.424 462.422 365.865C450.861 361.822 438.954 360.02 427.026 360.02C396.727 360.017 366.272 371.647 340.832 387.761Z" fill="url(#paint1_linear_5_3)"/>
<defs>
<linearGradient id="paint0_linear_5_3" x1="640.6" y1="185.87" x2="587.774" y2="801.142" gradientUnits="userSpaceOnUse">
<stop stop-color="#FFDDC6"/>
<stop offset="0.228429" stop-color="#FFDDC6"/>
<stop offset="0.855825" stop-color="#FF6700"/>
<stop offset="1" stop-color="#FF6700"/>
</linearGradient>
<linearGradient id="paint1_linear_5_3" x1="394.953" y1="164.78" x2="342.127" y2="780.051" gradientUnits="userSpaceOnUse">
<stop stop-color="#FFDDC6"/>
<stop offset="0.491556" stop-color="#FFDDC6"/>
<stop offset="0.855825" stop-color="#FF6700"/>
<stop offset="1" stop-color="#FF6700"/>
</linearGradient>
</defs>
</svg>
