<svg width="71" height="71" viewBox="0 0 71 71" fill="none" xmlns="http://www.w3.org/2000/svg">
<rect width="70.1538" height="70.1538" rx="35.0769" fill="#1A1919" fill-opacity="0.75"/>
<path d="M50.0771 26.0769H44.0771V21.5769C44.0771 19.19 43.1289 16.9008 41.4411 15.2129C39.7533 13.5251 37.4641 12.5769 35.0771 12.5769C32.6902 12.5769 30.401 13.5251 28.7132 15.2129C27.0254 16.9008 26.0771 19.19 26.0771 21.5769V26.0769H20.0771C19.2815 26.0769 18.5184 26.393 17.9558 26.9556C17.3932 27.5182 17.0771 28.2813 17.0771 29.0769V50.0769C17.0771 50.8726 17.3932 51.6356 17.9558 52.1982C18.5184 52.7608 19.2815 53.0769 20.0771 53.0769H50.0771C50.8728 53.0769 51.6359 52.7608 52.1985 52.1982C52.7611 51.6356 53.0771 50.8726 53.0771 50.0769V29.0769C53.0771 28.2813 52.7611 27.5182 52.1985 26.9556C51.6359 26.393 50.8728 26.0769 50.0771 26.0769ZM29.0771 21.5769C29.0771 19.9856 29.7093 18.4595 30.8345 17.3343C31.9597 16.209 33.4858 15.5769 35.0771 15.5769C36.6684 15.5769 38.1946 16.209 39.3198 17.3343C40.445 18.4595 41.0771 19.9856 41.0771 21.5769V26.0769H29.0771V21.5769ZM50.0771 50.0769H20.0771V29.0769H50.0771V50.0769ZM37.3271 39.5769C37.3271 40.0219 37.1952 40.4569 36.948 40.8269C36.7007 41.1969 36.3493 41.4853 35.9382 41.6556C35.5271 41.8259 35.0747 41.8705 34.6382 41.7837C34.2017 41.6969 33.8008 41.4826 33.4862 41.1679C33.1715 40.8532 32.9572 40.4523 32.8704 40.0159C32.7836 39.5794 32.8281 39.127 32.9984 38.7159C33.1687 38.3047 33.4571 37.9533 33.8271 37.7061C34.1971 37.4589 34.6321 37.3269 35.0771 37.3269C35.6739 37.3269 36.2462 37.564 36.6681 37.9859C37.0901 38.4079 37.3271 38.9802 37.3271 39.5769Z" fill="url(#paint0_linear_238_54814)"/>
<defs>
<linearGradient id="paint0_linear_238_54814" x1="35.0771" y1="12.5769" x2="35.0771" y2="53.0769" gradientUnits="userSpaceOnUse">
<stop stop-color="#FFC20A"/>
<stop offset="1" stop-color="#B77A00"/>
</linearGradient>
</defs>
</svg>
